<?xml version="1.0" encoding="UTF-8"?>
<svg id="Layer_1" xmlns="http://www.w3.org/2000/svg" version="1.1" viewBox="0 0 293.28 177.89">
  <!-- Generator: Adobe Illustrator 29.5.1, SVG Export Plug-In . SVG Version: 2.1.0 Build 141)  -->
  <defs>
    <style>
      .st0 {
        fill: #61b85d;
      }

      .st1 {
        fill: #fff;
      }

      .st2 {
        fill: #00adc7;
      }

      .st3 {
        fill: #48b0e5;
      }

      .st4 {
        fill: #00326e;
      }
    </style>
  </defs>
  <g id="Intelsat">
    <path class="st1" d="M273.23,101.95c-.99,0-1.76-.77-1.76-1.89s.77-1.89,1.76-1.89,1.76.77,1.76,1.89c0,1.12-.82,1.89-1.76,1.89M273.23,102.42c1.29,0,2.32-1.03,2.32-2.32s-1.03-2.32-2.32-2.32-2.32,1.03-2.32,2.32c-.04,1.25,1.03,2.32,2.32,2.32M272.33,101.39h.47v-1.12h.3l.69,1.12h.52l-.73-1.16c.43-.04.69-.26.69-.73,0-.56-.34-.77-.99-.77h-.95v2.66ZM272.8,99.11h.43c.26,0,.56.04.56.34,0,.34-.26.39-.56.39h-.43v-.73M242.38,91.07h-4.17c1.25-3.61,2.62-7.26,4.17-10.7,1.55,3.39,2.96,7.05,4.21,10.7h-4.21ZM245.38,75.05h-5.93c-3.31,7.52-6.92,17.14-9.02,26.56l4.6.86c.56-2.41,1.2-4.77,1.89-7.13h11.04c.69,2.32,1.33,4.73,1.89,7.13l4.6-.86c-2.15-9.41-5.8-19.08-9.07-26.56M173.07,97.61v-7.43h8.85l-.99-4.47h-7.86v-6.32h10.57v-4.34h-15.73v26.94h16.11v-4.38h-10.96ZM267.04,79.52v22.43h-5.2v-22.43h-8.04v-4.47h20.71l1.03,4.47h-8.51ZM218.01,102.29c-3.31,0-6.1-.73-8.51-1.89l.73-4.73c2.28,1.33,5.11,2.36,7.82,2.36,2.41,0,4.04-1.12,4-3.27-.04-1.98-.99-2.79-4.9-4.47-5.29-2.15-7.39-3.87-7.48-8.04-.09-4.77,3.57-7.52,8.64-7.52,3.05,0,5.2.64,7.13,1.63l-.73,4.68c-1.98-1.29-4.3-2.11-6.4-2.11-2.58,0-3.7,1.25-3.7,2.88,0,1.72.9,2.54,4.68,4.08,5.59,2.28,7.65,4.17,7.69,8.34.09,5.29-3.78,8.04-8.98,8.04M190.6,101.95v-26.9h5.2v22.34h8.12l.99,4.55h-14.31ZM131.77,75.05v13.71c0,1.5.04,2.15.04,2.15-2.88-5.46-7.56-11.39-12.16-15.86h-5.07v26.94h4.9v-16.76q0-2.58-.04-3.39c5.33,5.84,9.8,12.89,13.06,20.15h4.3v-26.94h-5.03ZM155.06,79.52v22.43h-5.2v-22.43h-8.04v-4.47h20.71l1.03,4.47h-8.51ZM101.13,75.05h5.2v26.94h-5.2v-26.94Z"/>
    <path class="st3" d="M58.08,55.62c-1.68-.3-3.35-.43-5.11-.47-15.51-.3-28.83,9.63-33.43,23.59l25.22.86-.52-7.3,13.28-3.91.56-12.76Z"/>
    <polygon class="st4" points="44.76 79.6 44.24 72.3 57.52 68.39 57 80.03 44.76 79.6"/>
    <path class="st2" d="M84.38,89.91c-.13-17.53-11.86-26-11.86-26l-15,4.43-.52,11.64-12.25-.43.47,6.79,11.73-1.76-.9,28.83,15.25,2.45c14.27-11.13,13.06-25.95,13.06-25.95"/>
    <path class="st0" d="M45.23,86.39l-27.5,4.13c1.38,18.82,13.97,26.04,13.97,26.04,12.55,8.72,24.11,5.67,24.11,5.67l.26-8.72-9.02-1.46-1.8-25.65Z"/>
    <polygon class="st4" points="45.23 86.39 47.08 112.04 56.1 113.5 56.96 84.63 45.23 86.39"/>
  </g>
</svg>