<?xml version="1.0" encoding="UTF-8"?>
<svg id="Layer_1" xmlns="http://www.w3.org/2000/svg" version="1.1" viewBox="0 0 293.28 177.89">
  <!-- Generator: Adobe Illustrator 29.5.1, SVG Export Plug-In . SVG Version: 2.1.0 Build 141)  -->
  <defs>
    <style>
      .st0 {
        fill: #fff;
      }
    </style>
  </defs>
  <path class="st0" d="M175.12,123.11c0-2.87-1.05-5.2-2.88-6.75-2.29-1.88-5.52-2.66-10.32-2.66-3.52,0-6.91.28-9.23.73v32.95h6.06v-13.74h3.07c3.47.1,5.02,1.49,6,5.87.89,4.16,1.74,6.89,2.24,7.87h6.25c-.65-1.28-1.54-5.15-2.64-9.32-.78-3.23-2.22-5.57-4.65-6.61,3.16-1.09,6.1-4.02,6.1-8.34ZM162.36,129.17h-3.61v-10.57c.59-.15,1.84-.3,3.76-.3,3.98,0,6.51,1.74,6.51,5.37,0,3.33-2.53,5.5-6.66,5.5Z"/>
  <polygon class="st0" points="146.4 142.37 132.32 142.37 132.32 132.55 144.92 132.55 144.92 127.59 132.32 127.59 132.32 118.95 145.66 118.95 145.66 113.93 126.2 113.93 126.2 147.38 146.4 147.38 146.4 142.37"/>
  <path class="st0" d="M97.47,147.29c1.58.2,4.1.43,7.48.43,6.15,0,10.08-1.04,12.45-3.06,1.89-1.64,3.19-3.98,3.19-6.95,0-4.57-3.23-7.34-6.75-8.39,3.63-1.35,5.55-4.12,5.55-7.2,0-2.87-1.38-5.06-3.47-6.3-2.23-1.54-5.06-2.12-9.53-2.12-3.46,0-6.99.34-8.92.73v32.86h0ZM113.24,122.82c0,2.82-2.33,4.82-6.59,4.82h-3.14v-9.19c.65-.15,1.7-.24,3.48-.24,3.87,0,6.25,1.43,6.25,4.6ZM114.18,137.55c0,4.13-3.52,5.57-7.44,5.57-1.39,0-2.44,0-3.24-.15v-10.92h3.02c4.23,0,7.65,1.58,7.65,5.5Z"/>
  <path class="st0" d="M218.03,147.38h6.11v-14.09l11.12-19.36h-6.91l-4.02,8.6c-1.14,2.42-2.09,4.5-2.97,6.64-.95-2.29-1.79-4.17-2.93-6.64l-3.97-8.6h-6.99l10.56,19.51v13.93h0Z"/>
  <path class="st0" d="M146.62,96.97c23.09,0,41.81-18.71,41.81-41.82s-18.72-41.79-41.81-41.79-41.81,18.71-41.81,41.79,18.72,41.82,41.81,41.82ZM146.62,18.72c20.13,0,36.45,16.32,36.45,36.43s-16.32,36.45-36.45,36.45-36.46-16.31-36.46-36.45,16.33-36.43,36.46-36.43Z"/>
  <rect class="st0" x="84.01" y="113.93" width="6.11" height="33.44"/>
  <polygon class="st0" points="77.83 142.27 64.1 142.27 64.1 113.93 57.98 113.93 57.98 147.38 77.83 147.38 77.83 142.27"/>
  <path class="st0" d="M133.97,81.28h26.07c2.61-1.42,4.97-3.25,7.01-5.42h-40.09c2.04,2.17,4.39,4,7.01,5.42Z"/>
  <polygon class="st0" points="178.91 119.04 188.45 119.04 188.45 147.38 194.55 147.38 194.55 119.04 204.17 119.04 204.17 113.93 178.91 113.93 178.91 119.04"/>
  <path class="st0" d="M170.94,70.68c7.86-13.23-2.27-13.11,2.29-24.21,0,0,.02-.07.02-.14,0-.23-.21-.46-.46-.46-.06,0-.12.01-.16.04-8.94,5.46-9.89,18.43-1.69,24.77h0Z"/>
  <path class="st0" d="M124.1,72.2h43.31c-3.78-4.17-9.57-11.99-2.58-22.84,6.7-10.42-3.78-17.51-6.83-19.43,0,0-.1-.06-.25-.06-.25,0-.46.18-.46.43,0,.02.02.08.02.08,3.07,13.62-8.22,12.65-9.53,23.79-4.44-6.45.33-10.32,1.8-15.22,2.34-7.84-4.5-13.95-6.67-15.01,0,0-.07-.03-.21-.03-.26,0-.45.19-.46.43,0,.07.01.11.01.11,2.12,8.26-4.7,12.81-8.08,18.18-4.35,6.91-2.16,15.67-2.16,15.67h0c-3.35-2.11-5.92-8.14-5.92-12.17,0-5.02,1.77-8.66,2.93-10.78.03-.06.04-.1.04-.17,0-.24-.21-.42-.46-.42-.12,0-.23.05-.31.13-5.62,5.22-9.15,12.76-9.15,21.14,0,4.27.91,8.32,2.56,11.96.69,1.37,1.48,2.76,2.4,4.21h0Z"/>
  <path class="st0" d="M61.75,172.21c-1.24,0-2.42-.39-3.21-.85l-.53,2.01c.73.43,2.18.85,3.58.85,3.42,0,5.04-1.87,5.04-3.99,0-1.91-1.12-3.07-3.42-3.93-1.77-.69-2.54-1.16-2.54-2.18,0-.77.67-1.59,2.2-1.59,1.24,0,2.16.37,2.64.63l.59-1.95c-.69-.35-1.75-.67-3.19-.67-2.87,0-4.68,1.65-4.68,3.82,0,1.91,1.4,3.07,3.58,3.85,1.69.61,2.36,1.2,2.36,2.2,0,1.08-.86,1.81-2.42,1.81h0Z"/>
  <path class="st0" d="M73.29,166.23v-1.81h-2.3v-2.46l-2.36.69v1.77h-1.38v1.81h1.38v4.5c0,1.26.24,2.12.75,2.67.45.49,1.2.81,2.09.81.77,0,1.4-.12,1.75-.25l-.04-1.85c-.28.08-.49.12-.95.12-.92,0-1.24-.61-1.24-1.77v-4.23h2.3,0Z"/>
  <path class="st0" d="M74.35,171.36c0,1.46,1.08,2.85,3.01,2.85,1.24,0,2.24-.53,2.83-1.28h.06l.16,1.06h2.18c-.1-.59-.14-1.44-.14-2.3v-3.46c0-2.08-.89-4.03-3.95-4.03-1.51,0-2.75.41-3.46.85l.47,1.57c.65-.41,1.63-.71,2.58-.71,1.69,0,1.95,1.04,1.95,1.67v.16c-3.54-.02-5.68,1.2-5.68,3.62h0ZM80.09,169.31v1.32c0,.16-.02.35-.08.53-.22.69-.92,1.32-1.89,1.32-.77,0-1.38-.43-1.38-1.38,0-1.46,1.63-1.83,3.34-1.79h0Z"/>
  <path class="st0" d="M93.42,174v-5.68c0-3.03-1.73-4.11-3.4-4.11s-2.64.9-3.05,1.65h-.06l-.12-1.44h-2.12c.06.83.08,1.75.08,2.85v6.73h2.44v-5.63c0-.28.02-.57.1-.79.26-.73.92-1.42,1.89-1.42,1.32,0,1.83,1.04,1.83,2.42v5.41h2.42,0Z"/>
  <path class="st0" d="M102.19,160.03v5.43h-.04c-.43-.71-1.38-1.26-2.69-1.26-2.3,0-4.31,1.91-4.29,5.11,0,2.95,1.81,4.9,4.09,4.9,1.4,0,2.56-.67,3.13-1.73h.04l.1,1.51h2.17c-.04-.65-.08-1.71-.08-2.69v-11.27h-2.42ZM102.19,169.85c0,.26-.02.49-.08.71-.24,1.04-1.1,1.71-2.08,1.71-1.53,0-2.4-1.28-2.4-3.03s.87-3.17,2.42-3.17c1.1,0,1.87.77,2.08,1.71.04.2.06.43.06.63v1.44h0Z"/>
  <path class="st0" d="M106.3,171.36c0,1.46,1.08,2.85,3.01,2.85,1.24,0,2.24-.53,2.83-1.28h.06l.16,1.06h2.18c-.1-.59-.14-1.44-.14-2.3v-3.46c0-2.08-.89-4.03-3.95-4.03-1.51,0-2.75.41-3.46.85l.47,1.57c.65-.41,1.63-.71,2.58-.71,1.69,0,1.95,1.04,1.95,1.67v.16c-3.54-.02-5.68,1.2-5.68,3.62h0ZM112.04,169.31v1.32c0,.16-.02.35-.08.53-.22.69-.92,1.32-1.89,1.32-.77,0-1.38-.43-1.38-1.38,0-1.46,1.63-1.83,3.34-1.79h0Z"/>
  <path class="st0" d="M119.11,174v-4.96c0-.28.04-.53.08-.75.22-1.08,1-1.83,2.16-1.83.3,0,.51.04.71.08v-2.28c-.2-.04-.33-.06-.57-.06-1.02,0-2.14.69-2.62,2.05h-.08l-.08-1.83h-2.1c.06.87.08,1.79.08,3.09v6.49h2.42Z"/>
  <path class="st0" d="M129.91,160.03v5.43h-.04c-.43-.71-1.38-1.26-2.69-1.26-2.3,0-4.31,1.91-4.29,5.11,0,2.95,1.81,4.9,4.09,4.9,1.4,0,2.56-.67,3.13-1.73h.04l.1,1.51h2.17c-.04-.65-.08-1.71-.08-2.69v-11.27h-2.42ZM129.91,169.85c0,.26-.02.49-.08.71-.24,1.04-1.1,1.71-2.08,1.71-1.53,0-2.4-1.28-2.4-3.03s.87-3.17,2.42-3.17c1.1,0,1.87.77,2.08,1.71.04.2.06.43.06.63v1.44h0Z"/>
  <path class="st0" d="M147.38,163.96c0-1.12-.55-1.99-1.38-2.48-.9-.63-2.01-.85-3.8-.85-1.36,0-2.75.12-3.52.28v13.04c.61.08,1.63.18,2.97.18,2.42,0,3.97-.41,4.92-1.24.77-.63,1.28-1.56,1.28-2.74,0-1.83-1.28-2.93-2.67-3.28v-.04c1.44-.53,2.2-1.65,2.2-2.87h0ZM141.09,162.53c.26-.06.67-.1,1.38-.1,1.53,0,2.48.57,2.48,1.81,0,1.12-.94,1.91-2.62,1.91h-1.24v-3.62h0ZM145.3,170.08c0,1.63-1.38,2.22-2.93,2.22-.55,0-.96,0-1.28-.06v-4.33h1.2c1.67,0,3.01.63,3.01,2.16Z"/>
  <path class="st0" d="M149.11,171.36c0,1.46,1.08,2.85,3.01,2.85,1.24,0,2.24-.53,2.83-1.28h.06l.16,1.06h2.18c-.1-.59-.14-1.44-.14-2.3v-3.46c0-2.08-.89-4.03-3.95-4.03-1.51,0-2.75.41-3.46.85l.47,1.57c.65-.41,1.63-.71,2.58-.71,1.69,0,1.95,1.04,1.95,1.67v.16c-3.54-.02-5.68,1.2-5.68,3.62h0ZM154.85,169.31v1.32c0,.16-.02.35-.08.53-.22.69-.92,1.32-1.89,1.32-.77,0-1.38-.43-1.38-1.38,0-1.46,1.63-1.83,3.34-1.79h0Z"/>
  <path class="st0" d="M168.18,174v-5.68c0-3.03-1.73-4.11-3.4-4.11s-2.64.9-3.05,1.65h-.06l-.12-1.44h-2.12c.06.83.08,1.75.08,2.85v6.73h2.44v-5.63c0-.28.02-.57.1-.79.25-.73.92-1.42,1.89-1.42,1.32,0,1.83,1.04,1.83,2.42v5.41h2.42,0Z"/>
  <path class="st0" d="M170.49,160.03v13.97h2.42v-3.26l.83-.96,2.75,4.23h2.97l-4.05-5.67,3.54-3.92h-2.91l-2.32,3.09c-.26.33-.53.75-.77,1.12h-.04v-8.59h-2.42Z"/>
  <path class="st0" d="M190.94,162.61c1.4,0,2.28.26,3.01.57l.53-1.95c-.61-.29-1.89-.63-3.52-.63-4.39,0-7.38,2.69-7.38,6.89-.02,2.01.67,3.76,1.85,4.88,1.26,1.2,2.95,1.77,5.19,1.77,1.77,0,3.42-.43,4.27-.75v-6.71h-4.68v1.91h2.34v3.3c-.32.16-.96.28-1.83.28-2.75,0-4.6-1.79-4.6-4.8s1.99-4.76,4.82-4.76h0Z"/>
  <path class="st0" d="M199.59,174v-4.96c0-.28.04-.53.08-.75.22-1.08,1-1.83,2.16-1.83.3,0,.51.04.71.08v-2.28c-.2-.04-.33-.06-.57-.06-1.02,0-2.14.69-2.62,2.05h-.08l-.08-1.83h-2.1c.06.87.08,1.79.08,3.09v6.49h2.42Z"/>
  <path class="st0" d="M203.35,169.28c0,3.07,2.08,4.94,4.8,4.94,2.44,0,4.92-1.57,4.92-5.09,0-2.91-1.91-4.92-4.76-4.92s-4.96,1.93-4.96,5.08h0ZM210.56,169.18c0,1.93-.96,3.29-2.34,3.29-1.48,0-2.38-1.4-2.38-3.25,0-1.59.69-3.25,2.4-3.25s2.32,1.71,2.32,3.21h0Z"/>
  <path class="st0" d="M214.79,164.42v5.63c0,3.13,1.59,4.17,3.34,4.17s2.66-.98,3.07-1.67h.04l.12,1.46h2.13c-.04-.79-.08-1.73-.08-2.87v-6.71h-2.42v5.78c0,.28-.06.53-.14.75-.25.61-.88,1.3-1.85,1.3-1.28,0-1.79-1.02-1.79-2.62v-5.21h-2.42Z"/>
  <path class="st0" d="M228.19,177.89v-4.96h.04c.49.77,1.49,1.28,2.69,1.28,2.18,0,4.37-1.67,4.37-5.13,0-2.99-1.83-4.88-4.03-4.88-1.46,0-2.58.61-3.28,1.69h-.04l-.12-1.48h-2.12c.04.91.08,1.93.08,3.19v10.29h2.42ZM228.19,168.51c0-.2.04-.41.1-.61.24-1.06,1.16-1.79,2.16-1.79,1.56,0,2.38,1.38,2.38,3.07,0,1.89-.9,3.17-2.44,3.17-1.02,0-1.89-.71-2.13-1.69-.06-.22-.08-.43-.08-.67v-1.47h0Z"/>
</svg>