<?xml version="1.0" encoding="UTF-8"?>
<svg id="Layer_1" xmlns="http://www.w3.org/2000/svg" version="1.1" viewBox="0 0 293.2756 310.8898">
  <!-- Generator: Adobe Illustrator 29.4.0, SVG Export Plug-In . SVG Version: 2.1.0 Build 152)  -->
  <defs>
    <style>
      .st0 {
        fill: #fff;
      }
    </style>
  </defs>
  <path class="st0" d="M175.1201,256.1114c0-2.8662-1.049-5.2035-2.8752-6.7492-2.2854-1.8798-5.5233-2.6607-10.3248-2.6607-3.522,0-6.9065.2841-9.2348.7291v32.9472h6.0594v-13.7432h3.0682c3.472.1018,5.0212,1.4867,6.0041,5.87.8934,4.1564,1.7404,6.8921,2.239,7.8732h6.247c-.6468-1.2758-1.5367-5.1535-2.6375-9.3152-.7827-3.2343-2.2211-5.568-4.6495-6.608,3.1646-1.0865,6.1041-4.0188,6.1041-8.3432ZM162.3561,262.169h-3.6114v-10.5696c.5915-.1501,1.8352-.3002,3.7615-.3002,3.9777,0,6.5098,1.7405,6.5098,5.3661,0,3.3273-2.5321,5.5037-6.6599,5.5037Z"/>
  <polygon class="st0" points="146.3971 275.3744 132.3197 275.3744 132.3197 265.5517 144.9175 265.5517 144.9175 260.5858 132.3197 260.5858 132.3197 251.9496 145.6645 251.9496 145.6645 246.9338 126.2049 246.9338 126.2049 280.3778 146.3971 280.3778 146.3971 275.3744"/>
  <path class="st0" d="M97.4676,280.2884c1.5778.2037,4.1028.4307,7.4836.4307,6.1524,0,10.0764-1.0365,12.453-3.0575,1.8888-1.644,3.1862-3.9758,3.1862-6.9529,0-4.5655-3.2308-7.3407-6.7528-8.386,3.6256-1.3455,5.5519-4.1224,5.5519-7.2012,0-2.8716-1.383-5.0588-3.4702-6.3025-2.2265-1.5403-5.0605-2.1175-9.5314-2.1175-3.4631,0-6.9887.3395-8.9204.7291v32.8578ZM113.2372,255.8184c0,2.8233-2.3301,4.8175-6.5901,4.8175h-3.136v-9.1865c.6504-.1502,1.6958-.2359,3.4808-.2359,3.867,0,6.2453,1.4296,6.2453,4.6049ZM114.1842,270.5497c0,4.126-3.5184,5.5681-7.4371,5.5681-1.3903,0-2.4374,0-3.2361-.1483v-10.9181h3.0216c4.2279,0,7.6516,1.5833,7.6516,5.4983Z"/>
  <path class="st0" d="M218.0295,280.3778h6.1148v-14.0881l11.1235-19.3559h-6.9082l-4.0205,8.5968c-1.1382,2.4214-2.0853,4.5031-2.9735,6.6384-.9506-2.289-1.7923-4.1725-2.9288-6.6384l-3.9723-8.5968h-6.9904l10.5553,19.5149v13.929Z"/>
  <path class="st0" d="M146.6223,229.9688c23.087,0,41.8104-18.7145,41.8104-41.8176,0-23.0816-18.7234-41.7889-41.8104-41.7889s-41.8122,18.7073-41.8122,41.7889c0,23.1031,18.7198,41.8176,41.8122,41.8176ZM146.6223,151.7195c20.126,0,36.4496,16.3164,36.4496,36.4317,0,20.1386-16.3236,36.4496-36.4496,36.4496s-36.4604-16.311-36.4604-36.4496c0-20.1153,16.3271-36.4317,36.4604-36.4317Z"/>
  <rect class="st0" x="84.0068" y="246.9338" width="6.106" height="33.444"/>
  <polygon class="st0" points="77.8329 275.2653 64.0968 275.2653 64.0968 246.9338 57.9838 246.9338 57.9838 280.3778 77.8329 280.3778 77.8329 275.2653"/>
  <path class="st0" d="M133.9744,214.2814h26.0748c2.6072-1.4153,4.9747-3.2469,7.0065-5.4162h-40.0931c2.0371,2.1693,4.3941,4.0009,7.0118,5.4162Z"/>
  <polygon class="st0" points="178.9137 252.0425 188.4505 252.0425 188.4505 280.3778 194.5546 280.3778 194.5546 252.0425 204.1736 252.0425 204.1736 246.9338 178.9137 246.9338 178.9137 252.0425"/>
  <path class="st0" d="M170.9369,203.6849c7.8589-13.2339-2.2729-13.1052,2.2927-24.2145,0,0,.0214-.0679.0214-.1429-.0018-.2306-.2126-.4557-.4628-.4557-.0607,0-.1161.0125-.1608.0447-8.9417,5.4644-9.8888,18.4302-1.6904,24.7684Z"/>
  <path class="st0" d="M124.0964,205.1966h43.3149c-3.7757-4.1671-9.5689-11.9866-2.5785-22.8351,6.7027-10.4195-3.7758-17.5083-6.8297-19.4345,0,0-.0964-.0643-.2501-.0643-.2502,0-.4628.184-.4628.4288,0,.0179.016.0804.016.0804,3.0682,13.6234-8.218,12.646-9.5279,23.7946-4.4351-6.4544.3323-10.3195,1.7959-15.2175,2.3391-7.8374-4.5013-13.9523-6.6688-15.0083,0,0-.0715-.034-.2091-.034-.2556,0-.4521.1876-.4574.4307-.0036.0661.0107.1107.0107.1107,2.1156,8.2556-4.7049,12.8087-8.084,18.1837-4.3494,6.9118-2.1551,15.666-2.1551,15.666v.0054c-3.3522-2.1194-5.9201-8.1502-5.9201-12.1743,0-5.0248,1.7673-8.663,2.9305-10.7806.0322-.0572.0376-.1018.0376-.1697,0-.2359-.2072-.4217-.4611-.4217-.1232,0-.2251.0501-.3109.1286-5.6163,5.2232-9.1455,12.7551-9.1455,21.1411,0,4.2671.9149,8.3199,2.5552,11.9562.6934,1.3671,1.4849,2.7643,2.3999,4.2135Z"/>
  <path class="st0" d="M61.7468,305.2056c-1.2397,0-2.4196-.3928-3.2069-.8451l-.5313,2.0058c.7277.433,2.1829.8451,3.5803.8451,3.4226,0,5.0356-1.8673,5.0356-3.9924,0-1.9076-1.1222-3.0683-3.4226-3.9344-1.7708-.6874-2.5388-1.1607-2.5388-2.1829,0-.768.6697-1.5938,2.2039-1.5938,1.2395,0,2.1636.3735,2.6352.6294l.591-1.9462c-.6891-.3541-1.7516-.6697-3.1876-.6697-2.8703,0-4.6814,1.6534-4.6814,3.817,0,1.9076,1.3974,3.0683,3.5803,3.8538,1.6919.6101,2.36,1.201,2.36,2.2039,0,1.0818-.8645,1.8095-2.4179,1.8095Z"/>
  <path class="st0" d="M73.2925,299.2267v-1.8112h-2.3021v-2.4582l-2.36.6891v1.7691h-1.3764v1.8112h1.3764v4.5043c0,1.2589.2367,2.1233.747,2.6739.4523.4927,1.201.8065,2.0864.8065.7662,0,1.3956-.1175,1.7499-.2542l-.0386-1.8498c-.277.079-.4927.1175-.9451.1175-.924,0-1.2395-.6085-1.2395-1.7692v-4.229h2.3021Z"/>
  <path class="st0" d="M74.3497,304.3605c0,1.4552,1.0818,2.8509,3.0087,2.8509,1.2395,0,2.2425-.5313,2.8334-1.2782h.0596l.1561,1.0625h2.1847c-.0981-.5909-.1386-1.436-.1386-2.3021v-3.4611c0-2.0848-.8854-4.0327-3.9537-4.0327-1.5149,0-2.7527.4138-3.4611.8451l.4717,1.5745c.6487-.4137,1.6324-.7083,2.5774-.7083,1.6903,0,1.9463,1.0431,1.9463,1.6727v.156c-3.54-.0193-5.6843,1.2011-5.6843,3.6207ZM80.0937,302.3143v1.3185c0,.156-.0193.3541-.0789.5295-.2157.689-.9241,1.3185-1.8884,1.3185-.768,0-1.3764-.4331-1.3764-1.3764,0-1.4553,1.6324-1.8288,3.3436-1.7902Z"/>
  <path class="st0" d="M93.4154,306.9957v-5.6843c0-3.0298-1.7305-4.1116-3.4032-4.1116-1.5938,0-2.6353.9048-3.049,1.6516h-.0596l-.1175-1.436h-2.1232c.0578.8276.0771,1.7516.0771,2.8527v6.7275h2.4407v-5.6264c0-.2753.0193-.5699.0981-.7855.256-.7277.924-1.4167,1.8884-1.4167,1.3168,0,1.8288,1.0431,1.8288,2.4195v5.4091h2.4195Z"/>
  <path class="st0" d="M102.191,293.0304v5.4283h-.0404c-.4313-.7084-1.3764-1.2589-2.6948-1.2589-2.3004,0-4.308,1.9076-4.2869,5.1145,0,2.9509,1.8095,4.8971,4.0905,4.8971,1.3974,0,2.5581-.6681,3.1279-1.7305h.0386l.0983,1.5148h2.1654c-.0403-.6487-.079-1.7112-.079-2.6949v-11.2704h-2.4195ZM102.191,302.8455c0,.256-.0194.491-.079.7084-.2367,1.0414-1.1011,1.7112-2.0846,1.7112-1.5342,0-2.4003-1.2782-2.4003-3.0298,0-1.7902.8661-3.1666,2.4196-3.1666,1.1011,0,1.8691.7662,2.0846,1.7112.0403.1964.0597.4331.0597.6295v1.436Z"/>
  <path class="st0" d="M106.299,304.3605c0,1.4552,1.0818,2.8509,3.0087,2.8509,1.2395,0,2.2425-.5313,2.8334-1.2782h.0596l.1561,1.0625h2.1847c-.0983-.5909-.1386-1.436-.1386-2.3021v-3.4611c0-2.0848-.8854-4.0327-3.9537-4.0327-1.5149,0-2.7527.4138-3.4611.8451l.4717,1.5745c.6487-.4137,1.6324-.7083,2.5774-.7083,1.6902,0,1.9462,1.0431,1.9462,1.6727v.156c-3.54-.0193-5.6842,1.2011-5.6842,3.6207ZM112.043,302.3143v1.3185c0,.156-.0194.3541-.079.5295-.2157.689-.924,1.3185-1.8884,1.3185-.7679,0-1.3764-.4331-1.3764-1.3764,0-1.4553,1.6324-1.8288,3.3437-1.7902Z"/>
  <path class="st0" d="M119.1088,306.9957v-4.9567c0-.2753.0404-.5313.079-.747.2173-1.0818,1.0028-1.8304,2.1636-1.8304.2963,0,.5119.0403.7083.0789v-2.2811c-.1964-.0404-.3349-.0597-.5698-.0597-1.024,0-2.1443.6891-2.6159,2.0462h-.079l-.0789-1.8305h-2.104c.0578.8661.0772,1.7902.0772,3.0893v6.4909h2.4195Z"/>
  <path class="st0" d="M129.9059,293.0304v5.4283h-.0403c-.4331-.7084-1.3764-1.2589-2.6949-1.2589-2.3004,0-4.308,1.9076-4.2869,5.1145,0,2.9509,1.8095,4.8971,4.0905,4.8971,1.3974,0,2.5581-.6681,3.128-1.7305h.0386l.0981,1.5148h2.1654c-.0403-.6487-.0789-1.7112-.0789-2.6949v-11.2704h-2.4196ZM129.9059,302.8455c0,.256-.0193.491-.0789.7084-.2367,1.0414-1.1011,1.7112-2.0848,1.7112-1.5342,0-2.4003-1.2782-2.4003-3.0298,0-1.7902.8661-3.1666,2.4196-3.1666,1.1011,0,1.8691.7662,2.0848,1.7112.0403.1964.0596.4331.0596.6295v1.436Z"/>
  <path class="st0" d="M147.3849,296.9631c0-1.1204-.5505-1.9865-1.3764-2.4775-.9048-.6294-2.0059-.8469-3.796-.8469-1.3571,0-2.7545.1193-3.5207.277v13.0413c.6084.0771,1.6324.1771,2.9702.1771,2.4179,0,3.973-.4138,4.9164-1.2397.768-.6294,1.2781-1.5552,1.2781-2.7352,0-1.8288-1.2781-2.9299-2.6738-3.284v-.0403c1.436-.5313,2.2022-1.6516,2.2022-2.872ZM141.0904,295.5271c.256-.0578.6697-.0981,1.3781-.0981,1.5341,0,2.4775.5716,2.4775,1.8111,0,1.1205-.9434,1.9076-2.616,1.9076h-1.2395v-3.6206ZM145.3002,303.0805c0,1.6341-1.3764,2.2232-2.9316,2.2232-.5505,0-.9625,0-1.2781-.0578v-4.329h1.201c1.6709,0,3.0087.6294,3.0087,2.1636Z"/>
  <path class="st0" d="M149.1084,304.3605c0,1.4552,1.0818,2.8509,3.0087,2.8509,1.2397,0,2.2425-.5313,2.8334-1.2782h.0597l.156,1.0625h2.1847c-.0981-.5909-.1385-1.436-.1385-2.3021v-3.4611c0-2.0848-.8855-4.0327-3.9538-4.0327-1.5148,0-2.7527.4138-3.461.8451l.4716,1.5745c.6488-.4137,1.6324-.7083,2.5775-.7083,1.6902,0,1.9462,1.0431,1.9462,1.6727v.156c-3.54-.0193-5.6843,1.2011-5.6843,3.6207ZM154.8523,302.3143v1.3185c0,.156-.0193.3541-.0789.5295-.2157.689-.9241,1.3185-1.8884,1.3185-.768,0-1.3764-.4331-1.3764-1.3764,0-1.4553,1.6324-1.8288,3.3436-1.7902Z"/>
  <path class="st0" d="M168.176,306.9957v-5.6843c0-3.0298-1.7306-4.1116-3.4033-4.1116-1.5938,0-2.6352.9048-3.049,1.6516h-.0578l-.1193-1.436h-2.1232c.0578.8276.0771,1.7516.0771,2.8527v6.7275h2.4407v-5.6264c0-.2753.0193-.5699.0981-.7855.2542-.7277.9241-1.4167,1.8884-1.4167,1.3168,0,1.8288,1.0431,1.8288,2.4195v5.4091h2.4196Z"/>
  <path class="st0" d="M170.4921,293.0304v13.9653h2.4196v-3.2647l.8276-.9643,2.7527,4.229h2.9702l-4.052-5.6651,3.54-3.9152h-2.9106l-2.3214,3.0893c-.256.335-.5313.747-.7662,1.1205h-.0403v-8.5949h-2.4196Z"/>
  <path class="st0" d="M190.9447,295.6061c1.3956,0,2.2811.2559,3.0087.5716l.5313-1.9481c-.6101-.2946-1.8884-.6294-3.5207-.6294-4.3868,0-7.3763,2.6949-7.3763,6.8853-.0193,2.0059.668,3.7557,1.848,4.8778,1.2588,1.1993,2.9509,1.7709,5.1934,1.7709,1.7708,0,3.4225-.4331,4.2693-.7487v-6.7066h-4.6814v1.9076h2.3408v3.305c-.3156.1561-.9644.2753-1.8305.2753-2.7527,0-4.6025-1.7901-4.6025-4.8006,0-3.0876,1.9866-4.7603,4.82-4.7603Z"/>
  <path class="st0" d="M199.5922,306.9957v-4.9567c0-.2753.0403-.5313.0789-.747.2174-1.0818,1.0028-1.8304,2.1636-1.8304.2963,0,.512.0403.7083.0789v-2.2811c-.1963-.0404-.3349-.0597-.5698-.0597-1.024,0-2.1443.6891-2.6159,2.0462h-.079l-.0789-1.8305h-2.104c.0579.8661.0772,1.7902.0772,3.0893v6.4909h2.4196Z"/>
  <path class="st0" d="M203.346,302.2757c0,3.0683,2.0848,4.9356,4.7989,4.9356,2.4389,0,4.9181-1.5728,4.9181-5.0935,0-2.9122-1.9076-4.9181-4.7604-4.9181-2.8912,0-4.9567,1.9269-4.9567,5.076ZM210.5646,302.1758c0,1.9287-.9644,3.2857-2.3408,3.2857-1.4763,0-2.3811-1.3975-2.3811-3.2454,0-1.5938.6891-3.2454,2.4003-3.2454,1.6534,0,2.3215,1.7112,2.3215,3.2051Z"/>
  <path class="st0" d="M214.7901,297.4154v5.6265c0,3.1279,1.5938,4.1694,3.3436,4.1694,1.7113,0,2.6563-.9837,3.0684-1.6709h.0403l.1174,1.4552h2.1251c-.0403-.7873-.0789-1.7305-.0789-2.8719v-6.7083h-2.4196v5.7842c0,.2753-.0597.5313-.1386.747-.2542.6101-.8837,1.2992-1.848,1.2992-1.2781,0-1.7901-1.024-1.7901-2.6178v-5.2127h-2.4196Z"/>
  <path class="st0" d="M228.1908,310.8898v-4.9567h.0403c.491.768,1.4939,1.2782,2.6949,1.2782,2.1829,0,4.3658-1.6709,4.3658-5.1338,0-2.9894-1.8288-4.8778-4.0327-4.8778-1.4552,0-2.5756.6102-3.284,1.6921h-.0403l-.1174-1.4764h-2.1233c.0386.9064.0771,1.9287.0771,3.1876v10.2868h2.4196ZM228.1908,301.5077c0-.1964.0403-.4137.0981-.6101.2367-1.0625,1.1608-1.7902,2.1636-1.7902,1.5552,0,2.3811,1.3781,2.3811,3.0684,0,1.8882-.9047,3.1682-2.4389,3.1682-1.024,0-1.8884-.7083-2.1251-1.6919-.0578-.2174-.0789-.4331-.0789-.6698v-1.4745Z"/>
</svg>