<?xml version="1.0" encoding="UTF-8"?>
<svg id="Layer_1" xmlns="http://www.w3.org/2000/svg" version="1.1" viewBox="0 0 293.2756 310.8898">
  <!-- Generator: Adobe Illustrator 29.4.0, SVG Export Plug-In . SVG Version: 2.1.0 Build 152)  -->
  <defs>
    <style>
      .st0 {
        fill: #fff;
      }
    </style>
  </defs>
  <path class="st0" d="M78.7462,304.8594v-54.3222h7.4497v48.4404h24.3691v5.8818h-31.8188M119.2696,250.4639h7.4463v54.3233h-7.4463v-54.3233ZM140.0225,304.7872v-54.3233h30.7178v5.8819h-23.2705v18.0546h21.4912v5.8018h-21.4912v24.585h-7.4473ZM211.7764,273.5157v5.8017h-22.0839v19.584h24.7099v5.8858h-32.1592v-54.3233h30.8897v5.8819h-23.4404v17.1699h22.0839ZM3.9473,236.8975v-54.3223h7.4458v48.4405h24.3726v5.8818H3.9473ZM45.1641,182.5752h7.4478v54.3223h-7.4478v-54.3223ZM66.7457,236.7276v-53.355c1.6538-.3677,3.6621-.6587,6.0307-.8774,2.3721-.2183,4.8448-.3262,7.4249-.333,3.6552-.0035,6.7348.3086,9.2475.9502,2.5088.6347,4.6157,1.6372,6.3257,3,1.498,1.0507,2.6719,2.3754,3.5195,3.9775.8535,1.606,1.2871,3.4751,1.3042,5.6113-.0312,2.6983-.9018,5.1016-2.6045,7.2066-1.7011,2.1015-4.0488,3.6797-7.0434,4.7231v.2432c1.8501.3984,3.6675,1.1513,5.4551,2.2578,1.7895,1.1055,3.2773,2.5898,4.4614,4.4599,1.188,1.8653,1.8003,4.1407,1.8471,6.8213-.0229,2.334-.4702,4.3975-1.3442,6.1973-.8774,1.7959-2.0649,3.3564-3.5649,4.6856-3.8355,3.4228-10.3799,5.1152-19.6338,5.0761-5.1172-.0517-8.9268-.2695-11.4253-.6445ZM74.1114,188.0474v17.5689h6.6865c3.8789-.0557,6.8858-.9327,9.0201-2.6289,2.1362-1.6993,3.2182-3.8838,3.246-6.5577-.0522-3.1211-1.1948-5.3823-3.4248-6.7905-2.2314-1.4077-5.2363-2.0981-9.0112-2.0737-3.2739.0381-5.4448.2012-6.5166.4819ZM74.1114,210.8565v20.7109c1.5088.2286,3.5669.336,6.1748.3262,2.5786.0166,4.9712-.3164,7.1821-.9853,2.209-.669,3.9917-1.7793,5.3565-3.3291,1.3628-1.5469,2.0615-3.6309,2.103-6.2461-.1123-3.6446-1.5605-6.3086-4.3486-7.9903-2.7866-1.6787-6.2476-2.5068-10.3779-2.4863h-6.0899ZM143.3394,205.6265v5.8023h-22.0893v19.5869h24.7109v5.8818h-32.1582v-54.3223h30.8892v5.8848h-23.4419v17.1665h22.0893ZM156.7989,236.8936v-53.5176c1.9033-.3642,4.0986-.6587,6.5889-.8774,2.4863-.2149,5.001-.3257,7.539-.3296,3.9121-.0029,7.2207.3677,9.9151,1.1064,2.6953.7456,4.9219,1.8799,6.6758,3.4092,1.4082,1.1826,2.5039,2.6602,3.288,4.4322.7842,1.7685,1.1827,3.728,1.1934,5.8813-.0771,3.5547-1.1279,6.4956-3.1494,8.8228-2.0254,2.3305-4.5566,3.9848-7.5947,4.9555v.2461c4.2314,1.5576,7.0224,5.209,8.375,10.9629.9297,3.8008,1.7412,6.9707,2.4482,9.5088.7012,2.5351,1.3252,4.332,1.8691,5.3994h-7.6152c-.4687-.8252-1.0127-2.3408-1.6406-4.5527-.624-2.2129-1.3174-5.0215-2.084-8.4239-.8047-3.7002-2.0977-6.3671-3.8838-7.997-1.7832-1.6299-4.3281-2.4834-7.6269-2.5635h-6.9356v23.5371h-7.3623ZM164.1612,188.294v19.7461h7.5322c3.9786-.041,7.1065-.9883,9.3809-2.8296,2.2793-1.8452,3.4375-4.3384,3.4785-7.4907-.0556-3.482-1.2724-6.0415-3.6377-7.6612-2.3652-1.6259-5.5244-2.4306-9.4775-2.4101-3.5694.0522-5.9971.2705-7.2764.6455ZM215.1964,236.8975v-48.3574h-17.3506v-5.9649h42.2265v5.9649h-17.4306v48.3574h-7.4453ZM270.2882,236.8975h-7.4493v-23.0478l-18.1093-31.2745h8.4648l8.0391,14.9917,2.9648,5.7222c.9229,1.7861,1.8242,3.6138,2.7051,5.4834,1.748-3.4546,3.666-7.1894,5.9238-11.2056l8.209-14.9917h8.292l-19.04,31.1905v23.1318ZM173.1817,128.2354h-53.0639c-4.0557-2.2788-7.7876-5.0566-11.1148-8.2578h75.2901c-3.3262,3.2012-7.0606,5.979-11.1114,8.2578ZM186.6026,108.6651c-14.375-11.3438-10.6748-32.3667,2.3028-37.0796-7.2276,12.7139,14.2841,19.4761-2.3028,37.0796ZM107.0972,114.6543c-26.2094-48.5239,15.1744-67.9726,15.1744-67.9726,0,0-14.3418,16.7368-3.6431,37.3887.0347-.6036,0,0,0,0-3.6626-37.3086,32.5728-34.4927,25.1655-60.9605,0,0,17.0625,5.1084,13.3448,23.6519-2.8506,14.2324-15.5977,18.7617-7.375,30.7295,2.5019-21.1787,27.4687-20.7486,21.9335-42.2813,0,0,22.8086,13.9102,7.4112,34.7769-15.5645,21.0991.8115,37.9048,7.0361,44.6674h-79.0474ZM146.648,6.0303c41.3247,0,74.8179,33.5005,74.8179,74.8218s-33.4932,74.8286-74.8179,74.8286-74.8203-33.501-74.8203-74.8286S105.3253,6.0303,146.648,6.0303ZM146.648,13.0079c-37.4716,0-67.8462,30.3759-67.8462,67.8442s30.3746,67.8511,67.8462,67.8511,67.8443-30.376,67.8443-67.8511S184.1192,13.0079,146.648,13.0079Z"/>
</svg>