<?xml version="1.0" encoding="UTF-8"?>
<svg id="Layer_1" xmlns="http://www.w3.org/2000/svg" version="1.1" viewBox="0 0 59.525 62.0686">
  <!-- Generator: Adobe Illustrator 29.4.0, SVG Export Plug-In . SVG Version: 2.1.0 Build 152)  -->
  <defs>
    <style>
      .st0 {
        fill: #fff;
      }
    </style>
  </defs>
  <path class="st0" d="M7.1644,15.7698h45.1959c3.145,0,5.694-2.549,5.694-5.694v-3.325c0-3.1449-2.549-5.694-5.694-5.694H7.1644C4.0194,1.0568,1.4703,3.6059,1.4703,6.7508v3.325c0,3.145,2.5491,5.694,5.6941,5.694"/>
  <path class="st0" d="M17.4497,38.8733h34.9109c3.145,0,5.6941-2.549,5.6941-5.694v-1.66c0-3.145-2.5491-5.694-5.6941-5.694H17.4497c-3.145,0-5.6941,2.549-5.6941,5.694v1.66c0,3.145,2.5491,5.694,5.6941,5.694"/>
  <path class="st0" d="M27.4292,61.0118h24.9319c3.144,0,5.6931-2.549,5.6931-5.694s-2.5491-5.694-5.6931-5.694h-24.9319c-3.145,0-5.6941,2.549-5.6941,5.694s2.5491,5.694,5.6941,5.694"/>
</svg>