<?xml version="1.0" encoding="UTF-8"?>
<svg id="Isolation_Mode" xmlns="http://www.w3.org/2000/svg" version="1.1" viewBox="0 0 62 80">
  <!-- Generator: Adobe Illustrator 29.4.0, SVG Export Plug-In . SVG Version: 2.1.0 Build 152)  -->
  <defs>
    <style>
      .st0 {
        fill: #fff;
      }
    </style>
  </defs>
  <g id="Artwork_51">
    <path class="st0" d="M59.37,0H0v62.8h62V0h-2.63ZM58.06,3.97v15.53h-.31c-4.44,0-8.68.91-12.7,2.72-1.44.65-2.79,1.4-4.07,2.24-.03.02-.07.04-.1.07-2.26,1.51-4.27,3.32-6.03,5.45-2.41-3.44-5.53-6.1-9.37-7.96-1.9-.92-3.84-1.61-5.84-2.07-.03,0-.07-.02-.1-.03-2.02-.46-4.09-.69-6.21-.69-3.22,0-6.35.62-9.39,1.84V3.97h54.13-.01ZM3.94,38.58c1.35-.52,2.81-.79,4.39-.79,3.15,0,5.85,1.14,8.12,3.42,1.58,1.59,2.6,3.41,3.08,5.47.04.16.07.32.1.48.14.76.22,1.55.22,2.37v9.29H3.94v-20.24ZM40.82,58.83v-9.29c0-.42.02-.83.06-1.23.02-.26.06-.51.1-.77.38-2.32,1.43-4.35,3.17-6.1,2.22-2.23,4.95-3.35,8.19-3.35,2.14,0,4.05.51,5.72,1.51v19.24h-17.25l.01-.01Z"/>
  </g>
  <g>
    <path class="st0" d="M42.01,73.87c-.06-.39-.2-.67-.44-.85-.23-.18-.59-.27-1.07-.27s-.8.05-1.03.16-.35.3-.35.56c0,.23.12.41.35.55s.57.27,1.02.4c.73.21,1.34.38,1.85.53.5.14.9.31,1.21.51.3.2.52.44.65.73s.2.68.2,1.18c0,.76-.31,1.39-.94,1.89-.63.5-1.56.75-2.79.75-.6,0-1.15-.07-1.64-.21-.49-.14-.91-.34-1.26-.59-.35-.26-.62-.57-.8-.93-.19-.36-.29-.77-.3-1.21h2.29c0,.4.16.71.47.93s.72.33,1.22.33c.42,0,.78-.07,1.09-.2.3-.13.45-.33.45-.61,0-.31-.11-.53-.33-.67s-.56-.26-1.02-.36c-.82-.18-1.48-.38-1.98-.58-.5-.2-.89-.42-1.17-.66-.28-.24-.47-.51-.56-.79-.1-.29-.15-.61-.15-.96,0-.32.07-.63.2-.91.13-.29.34-.54.63-.76.28-.22.65-.39,1.11-.53.46-.13,1.01-.2,1.68-.2,1.21,0,2.09.25,2.65.74s.87,1.18.92,2.05h-2.14l-.02-.02Z"/>
    <path class="st0" d="M9.87,79.78v-5.13c0-.52-.12-.94-.36-1.26s-.56-.48-.96-.48-.75.17-1.02.52c-.27.34-.4.77-.4,1.29v5.06h-2.22v-5.09c0-.34-.02-.63-.07-.84-.05-.22-.12-.39-.23-.52s-.25-.21-.42-.27c-.17-.05-.38-.08-.62-.08-.9,0-1.35.55-1.35,1.65v5.15H0v-8.47h2.09v1.24c.29-.56.63-.95,1.03-1.15.4-.21.88-.31,1.44-.31.28,0,.54.02.76.07s.42.12.6.23.35.25.5.42c.16.17.32.38.48.62.23-.47.53-.81.91-1.02s.83-.32,1.37-.32c.42,0,.81.07,1.16.21.35.14.66.34.91.6s.45.56.59.9c.14.34.21.71.21,1.1v5.87h-2.17l-.01.01Z"/>
    <path class="st0" d="M13.84,68.21h2.22v2.08h-2.22s0-2.08,0-2.08ZM13.84,71.31h2.22v8.47h-2.22s0-8.47,0-8.47Z"/>
    <path class="st0" d="M23.24,79.78v-5.13c0-.65-.11-1.09-.32-1.32-.22-.23-.59-.34-1.11-.34-1.15,0-1.73.65-1.73,1.94v4.85h-2.22v-8.47h2.12v1.24c.26-.48.61-.85,1.04-1.09.43-.25.99-.37,1.68-.37.4,0,.77.06,1.11.18s.64.3.88.54.44.54.58.89.21.75.21,1.21v5.87s-2.24,0-2.24,0Z"/>
    <path class="st0" d="M33.06,79.77l-.02-1.03c-.51.84-1.29,1.26-2.34,1.26-.54,0-1.03-.1-1.47-.31-.44-.21-.83-.51-1.15-.9s-.57-.87-.75-1.43-.27-1.2-.27-1.91c0-.64.08-1.23.23-1.76s.38-.99.68-1.38c.3-.39.66-.69,1.09-.9s.92-.32,1.46-.32c1.04,0,1.87.44,2.5,1.32v-4.2h2.19v11.57h-2.14l-.01-.01ZM31.21,78.18c.54,0,.98-.22,1.34-.67s.54-1.03.54-1.76c0-1.83-.62-2.75-1.86-2.75s-1.92.87-1.92,2.62c0,.76.18,1.37.53,1.85.35.48.81.71,1.37.71"/>
    <path class="st0" d="M47.82,76.13c.04.64.22,1.15.56,1.53s.78.57,1.33.57c.36,0,.69-.08.97-.25.28-.17.46-.4.54-.7h2.29c-.26.87-.72,1.54-1.37,2.01-.65.47-1.43.71-2.33.71-2.8,0-4.21-1.54-4.21-4.61,0-.65.09-1.25.27-1.77.18-.53.45-.98.79-1.36.35-.38.77-.67,1.27-.87.5-.2,1.08-.3,1.73-.3,1.3,0,2.28.42,2.95,1.26.67.84,1,2.1,1,3.79h-5.8l.01-.01ZM51.33,74.72c-.01-.31-.07-.58-.16-.82-.1-.24-.23-.43-.38-.58-.16-.16-.34-.27-.55-.35-.21-.07-.42-.11-.63-.11-.44,0-.83.16-1.15.49-.33.33-.51.78-.56,1.37h3.44-.01Z"/>
    <path class="st0" d="M59.93,74.2h2.07v2.41c0,.45-.07.88-.2,1.28-.13.41-.34.77-.62,1.08-.28.32-.63.56-1.06.75-.43.18-.94.28-1.53.28s-1.14-.09-1.57-.28c-.43-.18-.79-.43-1.07-.74s-.48-.67-.61-1.08-.19-.85-.19-1.31v-7.57h2.19v2.29h4.65v1.58h-4.65v3.48c0,.54.1.96.3,1.25s.53.44.98.44.77-.14.98-.43.32-.69.32-1.22v-2.2l.01-.01Z"/>
  </g>
</svg>