<?xml version="1.0" encoding="UTF-8"?>
<svg id="Layer_1" xmlns="http://www.w3.org/2000/svg" version="1.1" viewBox="0 0 293.28 177.89">
  <!-- Generator: Adobe Illustrator 29.5.1, SVG Export Plug-In . SVG Version: 2.1.0 Build 141)  -->
  <defs>
    <style>
      .st0 {
        stroke: #cc6b39;
      }

      .st0, .st1, .st2, .st3, .st4, .st5, .st6, .st7, .st8, .st9, .st10, .st11, .st12, .st13 {
        fill: none;
        stroke-miterlimit: 3.86;
        stroke-width: 1.3px;
      }

      .st1 {
        stroke: #46065c;
      }

      .st14 {
        fill: #822a85;
      }

      .st14, .st15, .st16, .st17, .st18, .st19, .st20, .st21, .st22, .st23, .st24, .st25, .st26, .st27, .st28 {
        fill-rule: evenodd;
      }

      .st2 {
        stroke: #ed1c24;
      }

      .st29, .st16 {
        fill: #fff;
      }

      .st3 {
        stroke: #00abbd;
      }

      .st15 {
        fill: #b82837;
      }

      .st4 {
        stroke: #b82837;
      }

      .st17 {
        fill: #00abbd;
      }

      .st18 {
        fill: #007196;
      }

      .st19 {
        fill: #46065c;
      }

      .st20 {
        fill: #ec008c;
      }

      .st21 {
        fill: #5f6db3;
      }

      .st5 {
        stroke: #639144;
      }

      .st6 {
        stroke: #fdb933;
      }

      .st22 {
        fill: #639144;
      }

      .st23 {
        fill: #f37021;
      }

      .st7 {
        stroke: #f37021;
      }

      .st24 {
        fill: #50b848;
      }

      .st8 {
        stroke: #50b848;
      }

      .st9 {
        stroke: #5f6db3;
      }

      .st25 {
        fill: #cc6b39;
      }

      .st10 {
        stroke: #ec008c;
      }

      .st11 {
        stroke: #007196;
      }

      .st26 {
        fill: #e28f38;
      }

      .st27 {
        fill: #fdb933;
      }

      .st28 {
        fill: #ed1c24;
      }

      .st12 {
        stroke: #e28f38;
      }

      .st13 {
        stroke: #822a85;
      }
    </style>
  </defs>
  <g id="Multichoice">
    <g id="svg20989">
      <g>
        <path class="st16" d="M85.45,114.18h-5.88v16.32l-6.07,4.55v-20.87h-5.69v23.53h5.12l6.64-4.94v4.94h5.88v-23.53Z"/>
        <path class="st16" d="M100.26,114.18h-5.69v23.53h11.95v-1.71h-6.26v-21.82h0Z"/>
        <path class="st16" d="M58.7,137.7h-5.69v-25.24l-6.26,4.55v20.68h-5.5v-25.24l-6.26,4.55v20.68h-5.69v-28.65h5.69v5.31l7.02-5.31h4.74v5.31l7.21-5.31h4.74v28.66Z"/>
        <path class="st29" d="M130.04,114.18h5.69v23.34h-5.69v-23.34Z"/>
        <path class="st16" d="M106.33,114.18h18.59v1.71h-6.44v21.82h-5.69v-21.82h-6.45v-1.71h0Z"/>
        <path class="st16" d="M144.84,112.84c0-2.27,2.65-3.8,5.31-3.8h8.72v5.12h-2.27v-3.04h-6.07v24.48h2.65c1.76.05,3.25-1.28,3.42-3.03v-1.71h2.27v1.71c-.28,2.9-2.78,5.06-5.69,4.93h-8.34v-24.67h0Z"/>
        <path class="st16" d="M165.33,114.18h5.69v10.44l6.07-4.55v-5.89h5.88v23.53h-5.88v-15.37l-6.07,4.55v10.82h-5.69v-23.53Z"/>
        <path class="st29" d="M218.65,114.18h5.69v23.34h-5.69v-23.34h0Z"/>
        <path class="st16" d="M239.14,115.88v20.3h1.71c1.71,0,3.04-.95,3.04-2.27v-1.89h2.08v1.89c0,2.27-2.46,3.8-5.12,3.8h-7.21v-20.49c0-1.71,2.27-2.84,3.61-2.84h8.73v4.37h-2.08v-2.84h-4.74v-.02Z"/>
        <path class="st16" d="M252.8,114.18h11.95v1.71h-6.26v7.59h5.12v1.52h-5.12v11h6.26v1.71h-11.95v-23.53h0Z"/>
        <path class="st16" d="M197.59,115.88h6.26v20.3h-6.26v-20.3ZM205.56,114.18h-9.49c-2.08,0-3.99,1.33-3.99,3.04v17.45c0,1.52,1.52,3.04,3.99,3.04h9.68c1.71,0,3.8-1.52,3.8-3.04v-17.45c0-1.52-1.89-3.04-3.98-3.04h0Z"/>
        <path class="st25" d="M146.17,17.41l-17.27,18.4,17.27,66.22V17.41Z"/>
        <path class="st0" d="M146.17,17.41l-17.27,18.4,17.27,66.22V17.41Z"/>
        <path class="st14" d="M60.97,35.62l2.84,21.63,79.12,44.97L60.97,35.62Z"/>
        <path class="st13" d="M60.97,35.62l2.84,21.63,79.12,44.97L60.97,35.62Z"/>
        <path class="st20" d="M142.94,102.22l-52.94-57.87-29.03-8.73,81.97,66.6Z"/>
        <path class="st10" d="M142.94,102.22l-52.94-57.87-29.03-8.73,81.97,66.6Z"/>
        <path class="st21" d="M140.1,102.6L59.27,58.77l-30.74.76,111.56,43.07h0Z"/>
        <path class="st9" d="M140.1,102.6L59.27,58.77l-30.74.76,111.56,43.07h0Z"/>
        <path class="st19" d="M28.53,59.53l7.59,16.32,103.98,26.75L28.53,59.53Z"/>
        <path class="st1" d="M28.53,59.53l7.59,16.32,103.98,26.75L28.53,59.53Z"/>
        <path class="st15" d="M101.96,21.96l-7.02,20.87,49.71,59.2L101.96,21.96Z"/>
        <path class="st4" d="M101.96,21.96l-7.02,20.87,49.71,59.2L101.96,21.96Z"/>
        <path class="st28" d="M144.65,102.03l-21.25-65.45-21.44-14.61,42.69,80.07h0Z"/>
        <path class="st2" d="M144.65,102.03l-21.25-65.45-21.44-14.61,42.69,80.07h0Z"/>
        <path class="st23" d="M146.17,17.41l17.08,18.4-17.08,66.22V17.41Z"/>
        <path class="st7" d="M146.17,17.41l17.08,18.4-17.08,66.22V17.41Z"/>
        <path class="st24" d="M230.98,35.62l-2.65,21.63-78.75,44.97s81.4-66.6,81.4-66.6Z"/>
        <path class="st8" d="M230.98,35.62l-2.65,21.63-78.75,44.97s81.4-66.6,81.4-66.6Z"/>
        <path class="st22" d="M149.58,102.22l52.17-57.87,29.23-8.73-81.4,66.6h0Z"/>
        <path class="st5" d="M149.58,102.22l52.17-57.87,29.23-8.73-81.4,66.6h0Z"/>
        <path class="st18" d="M152.24,102.6l81.21-43.83,31.12.57-112.33,43.26h0Z"/>
        <path class="st11" d="M152.24,102.6l81.21-43.83,31.12.57-112.33,43.26h0Z"/>
        <path class="st17" d="M264.56,59.34l-7.97,16.51-104.35,26.75,112.32-43.26h0Z"/>
        <path class="st3" d="M264.56,59.34l-7.97,16.51-104.35,26.75,112.32-43.26h0Z"/>
        <path class="st27" d="M189.61,21.96l6.83,20.87-48.76,59.2,41.93-80.07Z"/>
        <path class="st6" d="M189.61,21.96l6.83,20.87-48.76,59.2,41.93-80.07Z"/>
        <path class="st26" d="M147.69,102.03l21.25-65.45,20.68-14.61-41.92,80.07h0Z"/>
        <path class="st12" d="M147.69,102.03l21.25-65.45,20.68-14.61-41.92,80.07h0Z"/>
        <path class="st16" d="M70.27,148.9v11.38h3.99v-1.33h-2.46v-3.8h2.27v-1.33h-2.27v-3.6h2.46v-1.33h-3.99Z"/>
        <path class="st16" d="M82.04,151.55v-.2l2.65,8.92h1.52v-11.38h-1.52v3.99l.38,4.55v.2l-2.84-8.73h-1.33v11.38h1.52v-4.18l-.2-3.8-.18-.76h0Z"/>
        <path class="st16" d="M94.94,153.83v-3.8h.2c1.14,0,1.33.95,1.33,1.89,0,1.33-.39,2.08-1.52,1.89h0ZM93.43,160.28h1.52v-5.69l2.08,5.69h1.52l-2.1-5.69c1.33-.2,1.52-1.89,1.52-3.04,0-2.84-1.71-3.04-2.84-3.04h-1.89v11.76h.2Z"/>
        <path class="st29" d="M104.99,148.9h1.52v11.57h-1.52v-11.57Z"/>
        <path class="st16" d="M118.28,149.09c-.4-.23-.86-.37-1.33-.38-3.04,0-3.42,3.8-3.42,6.07,0,2.46.38,5.69,3.61,5.69.42.05.83-.08,1.14-.38v-1.33c-.29.16-.62.23-.95.2-2.08,0-2.27-2.84-2.27-4.37s0-4.55,2.08-4.55c.35,0,.69.14.95.38v-1.33h.19v-.02Z"/>
        <path class="st16" d="M124.73,148.9v11.38h1.52v-5.69h2.27v5.69h1.52v-11.38h-1.52v4.37h-2.27v-4.37h-1.52Z"/>
        <path class="st29" d="M137.25,148.9h1.52v11.57h-1.52v-11.57Z"/>
        <path class="st16" d="M147.31,151.55v-.2l2.65,8.92h1.33v-11.38h-1.52v3.99l.38,4.55v.2l-2.65-8.73h-1.52v11.38h1.52v-4.18l-.2-3.8v-.76h0Z"/>
        <path class="st16" d="M161.35,154.21v1.33h1.33v.57c0,2.65-.76,2.84-1.33,2.84-.76,0-1.33-.38-1.33-4.37,0-2.84,0-4.55,1.33-4.55.95,0,1.14.76,1.33,1.52l1.52-.57c-.15-1.41-1.42-2.43-2.83-2.29h-.02c-2.65,0-2.84,2.65-2.84,5.88s.38,5.88,3.04,5.88c3.04,0,2.65-3.8,2.65-6.07v-.2h-2.84v.02Z"/>
        <path class="st16" d="M179.37,148.9v11.38h4.18v-1.33h-2.65v-10.06h-1.52Z"/>
        <path class="st29" d="M189.81,148.9h1.52v11.57h-1.52v-11.57Z"/>
        <path class="st16" d="M197.59,148.9l2.27,11.38h1.33l2.08-11.38h-1.33l-.76,3.99-.57,3.8v.76h-.2l-1.32-8.54h-1.52Z"/>
        <path class="st16" d="M209.73,148.9v11.38h4.18v-1.33h-2.65v-3.8h2.27v-1.33h-2.27v-3.6h2.65v-1.33h-4.18Z"/>
        <path class="st16" d="M223.96,149.09c-.51-.33-1.11-.46-1.71-.38-1.49.02-2.69,1.24-2.68,2.73,0,.11,0,.2.02.31,0,3.04,3.23,3.42,3.23,5.69,0,.95-.38,1.52-1.33,1.52-.56.02-1.11-.19-1.52-.57v1.52c.49.39,1.09.58,1.71.57,1.49-.02,2.69-1.24,2.68-2.73,0-.11,0-.2-.02-.31,0-1.34-.64-2.61-1.71-3.42l-1.14-1.33c-.32-.36-.46-.85-.38-1.33-.03-.78.55-1.45,1.33-1.52.51-.02.99.2,1.33.57l.19-1.33h0Z"/>
      </g>
    </g>
  </g>
</svg>