<?xml version="1.0" encoding="UTF-8"?>
<svg id="Layer_1" xmlns="http://www.w3.org/2000/svg" version="1.1" viewBox="0 0 293.28 177.89">
  <!-- Generator: Adobe Illustrator 29.5.1, SVG Export Plug-In . SVG Version: 2.1.0 Build 141)  -->
  <defs>
    <style>
      .st0 {
        fill: #fff;
      }
    </style>
  </defs>
  <path class="st0" d="M199.59,156.89c.46,0,.59.32.85.32.8,0,2.36-1.99,2.36-3.7,0-2.24-.32-5.22-.78-5.22-.92,0-1.26,1.55-1.46,1.55-.09,0-.16-.07-.16-.2,0-.28.87-2.45,1.88-2.45.94,0,1.4,2.24,1.4,4.8,0,.98-.07,1.51-.07,1.76.09.09.32-.34.5-.73.82-1.81,1.44-3.18,1.44-5.08,0-.48.11-.75.43-.75.23,0,.32.18.32.45,0,.91-1.21,4.53-2.04,5.99-.5.87-2.45,4.48-4.58,4.48-.46,0-.68-.16-.68-.66,0-.34.25-.55.59-.55M198.37,147.19c.5,0,1.28.09,1.28.75,0,.48-.35.5-.57.5-.68,0-.94-.82-1.39-.82-1.08,0-2.26,3.84-2.26,4.62s.28,1.17.84,1.17c.94,0,1.37-1.08,1.56-1.08.05,0,.21.11.21.16,0,.07-1.37,1.99-2.52,1.99-.6,0-1.08-.32-1.08-1.83,0-1.69,1.49-5.46,3.93-5.46ZM186.57,152.87c0,.29.18.53.59.53,1.21,0,4.27-3.15,4.27-4.32,0-.3-.16-.52-.66-.52-1.56,0-4.2,2.81-4.2,4.3ZM185.5,153.46c0-2.15,3.23-5.31,5.29-5.31.28,0,.57.07.71.07.18,0,.34-.09.46-.34.19-.39.3-.52.76-.52.3,0,.41.07.41.25,0,.05-.04.18-.11.32l-2.31,5.06c-.05.11-.11.2-.11.3s.07.12.2.12c.62,0,1.78-1.63,1.97-1.63.16.42-2.03,2.68-2.95,2.68-.3,0-.42-.11-.42-.32,0-.6.89-2.27,1.12-2.75l-.82.82c-.89.98-2.38,2.26-3.43,2.26-.66,0-.78-.62-.78-1.01ZM181.16,151.95c.94,0,2.11-1.38,2.11-3.16,0-.53-.09-1.28-.83-1.28-1.28,0-1.9,2.65-1.9,3.39,0,.59.19,1.05.62,1.05ZM183.14,156.38c0-.96-2.31-2.06-2.4-2.06-.16,0-1.86.69-1.86,1.83,0,1.42,1.49,1.56,2.06,1.56,1.79,0,2.2-.78,2.2-1.33ZM185.32,147.88c.12,0,.16.04.16.25,0,.19-.05.21-.16.21h-1.33c.03.23.07.48.07.87,0,.64-.18,1.16-.53,1.67-1.12,1.62-3.02,1.21-3.02,1.76s.3.55,1.28,1.1c.85.48,2.13,1.05,2.13,2.52,0,1.03-1.19,1.83-2.99,1.83-2.06,0-3.06-.94-3.06-1.92,0-.82,1.03-1.69,2.59-2.12-.32-.18-1.03-.66-1.03-1.17,0-.3.83-.51,1.01-.71-.46-.55-.8-1.16-.8-1.92,0-1.58,1.37-3.07,2.67-3.07.5,0,.8.18,1.08.34.3.18.57.36.98.36h.94ZM174.16,150.92c2.22-.66,2.93-2.03,2.93-2.75,0-.32-.11-.66-.55-.66s-1.74.94-2.38,3.41ZM177.7,148.52c0,.64-.66,2.29-3.64,2.79-.11.27-.14.6-.14.83,0,1,.37,1.26,1.05,1.26,1.01,0,1.87-1.42,2.01-1.42.14.32-1.15,2.49-2.56,2.49-1.07,0-1.49-.92-1.49-2.06,0-2.36,2.1-5.23,3.71-5.23.76,0,1.07.73,1.07,1.33ZM165.35,144.99c.04-.18.12-.43.12-.75,0-.27-.25-.36-.43-.39-.48-.09-.94-.09-.94-.34,0-.12.14-.23.27-.23.32,0,.92.11,1.86.11.62,0,1.49-.11,1.9-.11.18,0,.27.05.27.2,0,.25-.57.27-.98.37-.5.12-.53.41-.69,1.05l-1.88,7.87c-.05.2-.09.36-.09.53,0,.34.16.43,1.03.43.46,0,2.59-.05,3.71-.5,1.42-.57,1.46-1.78,1.74-1.78.25,0,.3.11.3.27,0,.21-.51,1.51-.62,1.99-.11.39-.19.48-.35.48h-6.22c-1.28,0-1.55.11-1.95.11-.2,0-.28-.02-.28-.18,0-.37,1.03-.16,1.19-.82l2.04-8.32ZM155.15,147.51c-.44,0-1.74.94-2.38,3.41,2.22-.66,2.93-2.03,2.93-2.75,0-.32-.11-.66-.55-.66ZM155.24,147.19c.76,0,1.07.73,1.07,1.33,0,.64-.66,2.29-3.64,2.79-.11.27-.14.6-.14.83,0,1,.37,1.26,1.05,1.26,1.01,0,1.87-1.42,2.01-1.42.14.32-1.16,2.49-2.56,2.49-1.07,0-1.49-.92-1.49-2.06,0-2.36,2.1-5.23,3.71-5.23ZM145.23,149.96c-.18.5-.36.87-.36,1,.11.16.25-.12.39-.34,1.79-2.68,2.7-3.43,3.55-3.43,1.1,0,1.26,1.17,1.26,1.76,0,2.47-1.74,5.42-3.98,5.42-.28,0-.64-.16-.64-.53,0-.32.23-.5.6-.5.45,0,.53.32.98.32,1,0,2.19-4.37,2.19-5.12,0-.37-.2-.64-.64-.64-.82,0-1.99,1.41-3.55,3.73-.76,1.14-1.32,2.74-1.71,2.74-.34,0-.48-.09-.48-.27,0-.14.05-.34.21-.76l3.39-9.6c.05-.12.11-.27.11-.41,0-.52-.8-.52-.8-.75,0-.14.21-.16.36-.16.54,0,1.07-.07,1.6-.07.23,0,.32.05.32.2s-.37.92-.57,1.44l-2.24,5.97ZM141.91,148.04h-1.39l-1.63,4.35c-.05.16-.18.41-.18.53.94.16,1.87-1.4,2.06-1.4.14.73-2.17,2.91-3.02,2.91-.2,0-.37-.11-.37-.3,0-.27.14-.51.21-.73l1.92-5.37h-.94c-.21,0-.28-.05-.28-.28s.11-.29.3-.29h1.12l.62-1.63c.04-.11.16-.18.46-.18.34,0,.44.09.44.2s-.03.23-.07.34l-.48,1.28h1.28c.2,0,.23.11.23.29,0,.23-.05.28-.28.28ZM127.09,151.95c.94,0,2.11-1.38,2.11-3.16,0-.53-.09-1.28-.83-1.28-1.28,0-1.9,2.65-1.9,3.39,0,.59.2,1.05.62,1.05ZM129.06,156.38c0-.96-2.31-2.06-2.4-2.06-.16,0-1.87.69-1.87,1.83,0,1.42,1.49,1.56,2.06,1.56,1.79,0,2.2-.78,2.2-1.33ZM131.25,147.88c.12,0,.16.04.16.25,0,.19-.05.21-.16.21h-1.33c.04.23.07.48.07.87,0,.64-.18,1.16-.53,1.67-1.12,1.62-3.02,1.21-3.02,1.76s.3.55,1.28,1.1c.85.48,2.13,1.05,2.13,2.52,0,1.03-1.19,1.83-2.98,1.83-2.06,0-3.06-.94-3.06-1.92,0-.82,1.03-1.69,2.59-2.12-.32-.18-1.03-.66-1.03-1.17,0-.3.83-.51,1.01-.71-.46-.55-.8-1.16-.8-1.92,0-1.58,1.37-3.07,2.67-3.07.5,0,.8.18,1.08.34.3.18.57.36.98.36h.94ZM121.03,152.84c-.07.14-.16.27-.16.35,0,.14.09.21.2.21.44,0,1.39-1.15,1.51-1.15.16.51-1.37,2.11-2.58,2.11-.32,0-.45-.11-.45-.3,0-.18.12-.48.25-.76l2.03-4.32c.14-.3.18-.53.18-.71,0-.29-.16-.48-.41-.48-.64,0-1.26.73-3.3,4.03-.37.6-.69,1.15-1.03,1.92-.18.39-.3.62-.59.62-.3,0-.43-.11-.43-.32,0-.16.12-.44.18-.59l1.69-4.51c.09-.25.18-.48.18-.6,0-.14-.11-.23-.27-.23-.46,0-1.3,1.31-1.48,1.31-.14-.34.07-.55.18-.71.25-.35,1.3-1.53,1.99-1.53.43,0,.55.27.55.75,0,.69-1.07,2.95-1.07,3.15.09.09.16-.02.25-.16.32-.52,1.88-3.73,3.54-3.73.68,0,1.08.36,1.08.98,0,.44-.27,1-.46,1.4l-1.58,3.27ZM114.74,144.06c0,.36-.34.71-.71.71s-.71-.36-.71-.71.34-.71.71-.71.71.36.71.71ZM112.17,152.61c-.11.23-.25.44-.25.6,0,.11.02.21.19.21.14,0,.36-.14.82-.45.53-.35.73-.57.83-.57s.12.07.12.18c0,.21-1.85,1.87-2.9,1.87-.32,0-.52-.11-.52-.39,0-.14.05-.28.12-.42l2.04-4.14c.2-.41.36-.73.36-.96,0-.14-.09-.18-.16-.18-.27,0-1.21.94-1.46.94-.14-.3.02-.37.16-.51.21-.21,1.67-1.57,2.45-1.57.27,0,.37.3.37.48,0,.23-.16.66-.25.85l-1.95,4.05ZM104.9,148.96c.04-.11.07-.23.07-.35,0-.11-.07-.25-.25-.25-.71,0-1.65,1.81-2.01,1.81-.16-.46,1.83-2.99,2.9-2.99.37,0,.66.21.66.61,0,.21-.07.48-.16.73l-1.37,3.55c-.07.19-.2.53-.2.8,0,.3.11.6.43.6,1.08,0,3.64-3.06,3.64-4.64,0-.53-.12-.87-.12-1.14,0-.32.14-.62.48-.62.27,0,.43.32.43.94,0,.98-.32,1.74-1.28,3.16-.87,1.28-2.84,3.29-3.93,3.29-.43,0-.85-.39-.85-.96,0-.25.04-.51.12-.75l1.44-3.8ZM101.47,144.06c0,.36-.34.71-.71.71s-.71-.36-.71-.71.34-.71.71-.71.71.36.71.71ZM98.89,152.61c-.11.23-.25.44-.25.6,0,.11.02.21.2.21.14,0,.35-.14.82-.45.53-.35.73-.57.83-.57s.12.07.12.18c0,.21-1.85,1.87-2.9,1.87-.32,0-.51-.11-.51-.39,0-.14.05-.28.12-.42l2.04-4.14c.2-.41.35-.73.35-.96,0-.14-.09-.18-.16-.18-.27,0-1.21.94-1.46.94-.14-.3.02-.37.16-.51.21-.21,1.67-1.57,2.45-1.57.27,0,.37.3.37.48,0,.23-.16.66-.25.85l-1.95,4.05ZM89.4,144.99c.04-.18.12-.43.12-.75,0-.27-.25-.36-.43-.39-.48-.09-.94-.09-.94-.34,0-.12.14-.23.27-.23.32,0,.92.11,1.87.11.62,0,1.49-.11,1.9-.11.18,0,.27.05.27.2,0,.25-.57.27-.98.37-.5.12-.53.41-.69,1.05l-1.88,7.87c-.05.2-.09.36-.09.53,0,.34.16.43,1.03.43.46,0,2.59-.05,3.71-.5,1.42-.57,1.46-1.78,1.74-1.78.25,0,.3.11.3.27,0,.21-.52,1.51-.62,1.99-.11.39-.2.48-.35.48h-6.22c-1.28,0-1.55.11-1.95.11-.2,0-.29-.02-.29-.18,0-.37,1.03-.16,1.19-.82l2.04-8.32Z"/>
  <path class="st0" d="M213.32,126.1v.89c0,.18,0,.61-.31.61-.21,0-.41-.21-.59-.42,0,0-.37-.43-.94-1.09h1.84M206.49,126.1c.08.42.34.44.57.45l.32.03c.53.04.85.06.85.31s-.2.25-.34.25l-1.63-.06-1.34.04-.47.02c-.27,0-.32-.12-.32-.22,0-.27.14-.29,1.09-.37.29-.03.35-.14.35-.31v-.14h.93ZM191.96,126.1c.61.5,1.31.68,1.8.68.83,0,1.44-.27,1.89-.69h1.48c-.79.75-1.93,1.25-3.45,1.25-1.33,0-2.47-.46-3.3-1.25h1.57ZM181.99,126.1v.05c0,.3.22.37.42.41l.25.04c.33.05.57.09.57.31,0,.24-.36.24-.59.24l-.46-.02-.92-.04-.95.04-.49.02c-.21,0-.59,0-.59-.28,0-.23.13-.24.59-.29l.19-.02c.28-.03.58-.11.62-.45h1.36ZM170.29,126.1c.06.32.26.39.72.45l.22.03c.3.03.59.07.59.31,0,.17-.12.25-.37.25l-1.82-.06-1.99.06c-.2,0-.31-.07-.31-.21,0-.24.32-.29.64-.34l.22-.04c.38-.08.57-.18.66-.45h1.44ZM159.97,126.1c.14.25.3.41.46.46l.3.07c.21.04.39.08.39.28,0,.24-.25.24-.35.24l-1.64-.06-1.56.06c-.18,0-.27-.13-.27-.22,0-.22.29-.27.85-.37.04,0,.29-.09.29-.3l-.03-.16h1.55ZM154.27,126.1c-.01.06-.02.09-.02.11,0,.26.32.34.36.35.57.14.77.2.77.35,0,.24-.3.24-.4.24l-1.24-.06-1.56.06c-.16,0-.24-.08-.24-.24,0-.18.19-.22.41-.26l.36-.09.38-.31.07-.15h1.12ZM139.91,126.1c.34.37.91.51,1.42.51.46,0,1.14-.15,1.79-.51h1.83c-.78.62-1.81.99-2.94.99h-3.32l-1.27.06c-.21,0-.32-.07-.32-.21,0-.19.19-.32.59-.38.23-.04.44-.08.52-.45h1.7ZM129.96,126.1v.89c0,.18,0,.61-.31.61-.21,0-.41-.21-.59-.42,0,0-.37-.43-.93-1.09h1.83ZM123.13,126.1c.08.42.34.44.57.45l.31.03c.53.04.85.06.85.31s-.2.25-.34.25l-1.63-.06-1.34.04-.46.02c-.27,0-.33-.12-.33-.22,0-.27.15-.29,1.09-.37.29-.03.34-.14.34-.31v-.14h.93ZM108.77,126.1c.38.43.99.62,1.87.62s1.53-.19,1.95-.62h.88c-.51.81-1.5,1.24-3.35,1.24-1.65,0-2.48-.42-2.88-1.24h1.54ZM93.32,126.1c.6.5,1.3.68,1.84.68.83,0,1.44-.27,1.89-.69h1.48c-.79.75-1.93,1.25-3.45,1.25-1.32,0-2.47-.46-3.3-1.25h1.53ZM80.97,126.1c.06.29.26.36.95.45l.17.02c.22.02.47.05.47.28l-.05.19-.37.1h-.25s-1.5-.06-1.5-.06l-1.59.06c-.17,0-.52,0-.52-.27,0-.21.12-.23.92-.33.2-.02.32-.09.37-.45h1.41Z"/>
  <path class="st0" d="M29.08,100.93l.7-.03c.44,0,.5.23.5.38-.05.33-.39.36-.71.36-1.13,0-1.17.29-1.17,1.67v9.1c0,.25,0,.78-.39.78-.27,0-.53-.27-.77-.55,0,0-7.97-9.25-8.04-9.31v.3s.03,6.02.03,6.02l.04,1.12c0,1,.43,1.04.82,1.07l.41.03c.7.05,1.12.08,1.12.4s-.25.31-.43.31l-2.18-.07-1.78.05-.62.02c-.34,0-.41-.15-.41-.28,0-.34.16-.35,1.43-.46.34-.03.48-.16.48-.44l.22-7.41.04-.96c0-1.22-.24-1.25-.76-1.3l-.19-.02c-.97-.08-1.2-.1-1.2-.43,0-.27.34-.41.65-.41l.39.03.92.05.73-.05.3-.03c.4,0,.61.24.8.47l7.35,8.67c.11.06.14-.27.14-.37v-7.48c0-.42-.14-.45-1.19-.53l-.31-.02c-.25-.02-.62-.04-.62-.35,0-.39.46-.39.64-.39l2.1.07.95-.04M43.58,100.95l3.47-.05c.35,0,.35.28.35.67v1.8c0,.11-.09.18-.22.18-.22,0-.27-.13-.37-.4l-.21-.51c-.26-.61-.38-.89-3.49-.89-.62,0-.72.19-.72.81v3.25c0,.28.16.34.87.34h1.63c.82,0,.96-.59,1.07-1.06.07-.29.13-.55.36-.55.33,0,.33.28.33.45l-.03.5-.05,1.07.04,1.09.03.73c0,.13,0,.39-.28.39-.31,0-.36-.3-.43-.74-.18-1.06-.27-1.21-2.6-1.21-.91,0-.94.12-.94.42v3.64c0,.77,0,.87,2.18.87,1.29,0,1.69-.2,2.05-.61l.78-1.16c.12-.24.2-.38.39-.38.26,0,.26.19.26.26l-.07.31-.36,1.91c-.06.33-.2.45-.5.45h-5.35l-2.3.07c-.32,0-.68,0-.68-.29,0-.26.23-.31.52-.36l.34-.08.31-.08c.39-.08.67-.14.67-.7v-8.78c0-.42-.11-.51-.88-.67-.56-.11-.83-.16-.83-.43,0-.19.22-.3.62-.3l2.7.07,1.34-.02ZM65.61,109.86c.11,0,.3.05.3.39,0,.27-.1,1.15-.29,1.95-.09.36-.36.39-.44.39l-1.26-.02-3.74-.05-2.68.07c-.47,0-.56-.12-.56-.37,0-.33.3-.35.5-.37,1.13-.1,1.4-.22,1.4-1.19v-8.29c0-.57-.41-.7-1.23-.73-.22-.01-.74-.04-.74-.39s.39-.35.52-.35l2.27.07,1.05-.04,1.07-.04c.26,0,.69,0,.69.41,0,.29-.54.33-1.01.33-.44,0-.87.08-.87,1.02v8.5c0,.53.21.59.68.59l2.07-.15c.88-.12,1.46-.84,1.84-1.32.2-.25.32-.41.44-.41ZM96.54,100.63c4.63,0,6.36,3.7,6.36,6.04,0,2.98-2.02,6.18-6.45,6.18-3.6,0-6.21-2.57-6.21-6.11s2.71-6.11,6.3-6.11ZM96.54,112.15c4.02,0,4.22-4.8,4.22-5.76,0-2.51-1.47-5.05-4.3-5.05-1.89,0-4.09,1.43-4.09,5.44,0,4.25,2.73,5.37,4.17,5.37ZM78.21,105.5c1.51.77,3.23,1.65,3.23,3.8s-1.53,3.56-4.08,3.56l-1.83-.28c-1.23-.26-1.43-.65-1.43-1.79,0-.51.05-1.7.5-1.7.31,0,.33.21.36.48.03.26.07.64.34,1.13.64,1.15,1.62,1.39,2.34,1.39,1.67,0,2.42-.98,2.42-1.95,0-1.3-1.23-1.96-2.53-2.66-1.52-.82-3.1-1.66-3.1-3.61,0-1.55,1.13-3.22,3.62-3.22l1.03.1c1.44.28,1.5.5,1.5,1.27v1.55c0,.11-.08.22-.24.22-.27,0-.35-.29-.45-.67-.19-.72-.46-1.7-2.1-1.7-1.24,0-1.98.63-1.98,1.68,0,1.18,1.11,1.75,2.4,2.41ZM124.32,100.9c.44,0,.5.23.5.38-.05.33-.39.36-.71.36-1.13,0-1.16.29-1.16,1.67v9.1c0,.25,0,.78-.39.78-.27,0-.53-.27-.77-.55,0,0-7.97-9.25-8.04-9.31v.3s.02,6.02.02,6.02l.04,1.12c0,1,.43,1.04.82,1.07l.41.03c.69.05,1.12.08,1.12.4s-.25.31-.43.31l-2.18-.07-1.79.05-.62.02c-.34,0-.41-.15-.41-.28,0-.34.16-.35,1.43-.46.34-.03.48-.16.48-.44l.22-7.41.04-.96c0-1.22-.24-1.25-.76-1.3l-.2-.02c-.97-.08-1.2-.1-1.2-.43,0-.27.33-.41.65-.41l.39.03.92.05.73-.05.31-.03c.4,0,.61.24.81.47l7.35,8.67c.11.06.14-.27.14-.37v-7.48c0-.42-.14-.45-1.2-.53l-.31-.02c-.25-.02-.62-.04-.62-.35,0-.39.46-.39.63-.39l2.1.07.95-.04.7-.03ZM158.44,101.68c-1.04.16-1.26.2-1.26,1.39v7.75c0,.66.21.82,1.38,1.04.36.07.73.17.73.43,0,.31-.32.31-.96.31l-1.03-.04-.53-.03-2.51.07c-.16,0-.54,0-.54-.39,0-.25.38-.3.75-.35.89-.17.94-.2.94-.68v-6.79c0-.4-.07-.41-.17-.35l-3.45,7.97c-.05.13-.2.18-.31.18-.24,0-.52-.41-.82-1.23l-1.69-3.98c-.12-.29-1.54-3.34-1.62-3.5-.1.16-.1,1.97-.1,2.74v5.08c0,.28.54.46,1.05.55l.32.05c.53.09.77.13.77.39,0,.3-.33.3-.59.3l-2.08-.07-2.08.07c-.27,0-.45-.12-.45-.31,0-.36.34-.39.7-.43.72-.07,1.12-.35,1.14-.57l.62-8.1.02-.84c0-.34-.1-.37-1.15-.66l-.35-.08c-.34-.08-.55-.13-.55-.34,0-.2.09-.32.54-.32l1.28.04,1.46-.04c.18,0,.31.07.38.21l3.72,8.09,3.48-7.62c.1-.26.28-.69.58-.69l1.48.04.77-.02.77-.02c.13,0,.29.17.29.3,0,.37-.38.4-.7.42l-.26.03ZM178.98,111.95c.28.05.5.1.5.35,0,.3-.3.3-.45.3l-2.18-.07-2.08.07c-.23,0-.33-.16-.33-.28,0-.28.37-.34,1.11-.46.1-.02.41-.16.41-.42l-.07-.31-.96-3.18c-.13-.41-.14-.42-1.7-.44-1.06-.02-1.52.04-1.59.17-.46.93-1.33,3.5-1.33,3.68,0,.35.41.47.49.5l.21.05c.52.13.8.2.8.39,0,.3-.37.3-.5.3l-1.65-.07-2.08.07c-.2,0-.3-.1-.3-.3,0-.21.25-.26.53-.32l.47-.12c.36-.13.44-.25.52-.43l4.79-10.86c.04-.09.14-.15.25-.15.15,0,.27.08.29.18l3.49,9.96c.26.76.58,1.2.93,1.31l.42.09ZM173.22,106.55c.78,0,1.2-.04,1.24-.04l-.09-.33s-1-2.97-1.07-2.98l-1.25,3.02c-.05.12-.1.26-.12.27.07.03.48.07,1.29.07ZM201,100.9c.43,0,.5.23.5.38-.05.33-.39.36-.71.36-1.13,0-1.17.29-1.17,1.67v9.1c0,.25,0,.78-.39.78-.27,0-.53-.27-.77-.55,0,0-7.97-9.25-8.04-9.31l-.02.3.04,6.02.03,1.12c0,1,.43,1.04.82,1.07l.41.03c.7.05,1.12.08,1.12.4s-.25.31-.43.31l-2.17-.07-1.78.05-.62.02c-.34,0-.41-.15-.41-.28,0-.34.16-.35,1.43-.46.34-.03.48-.16.48-.44l.22-7.41.04-.96c0-1.22-.24-1.25-.76-1.3l-.2-.02c-.97-.08-1.2-.1-1.2-.43,0-.27.33-.41.65-.41l.4.03.92.05.72-.05.31-.03c.4,0,.6.24.8.47l7.35,8.67c.11.06.14-.27.14-.37v-7.48c0-.42-.13-.45-1.19-.53l-.31-.02c-.25-.02-.62-.04-.62-.35,0-.39.46-.39.63-.39l2.1.07.95-.04.7-.03ZM215.5,100.79c4.51,0,7.2,2.44,7.2,6.54,0,2.86-2.64,5.19-5.89,5.19h-4.43l-1.69.07c-.27,0-.41-.09-.41-.25,0-.25.25-.4.78-.49.39-.07.76-.14.76-1.15v-8.81c0-.23-.54-.25-.93-.27l-.34-.02c-.39-.03-.57-.05-.57-.31,0-.39.57-.39.81-.39h1.71l1.3-.05,1.7-.06ZM215.91,111.93c1.53,0,4.88-1.25,4.88-4.95s-3.34-5.48-5.71-5.48c-1.51,0-1.51.32-1.51.53v8.08c0,1.35,1.26,1.83,2.33,1.83ZM239.67,109.58c.26,0,.26.19.26.26l-.08.31-.36,1.91c-.06.33-.2.45-.5.45h-5.35l-2.3.07c-.31,0-.68,0-.68-.29,0-.26.23-.31.51-.36l.34-.08.31-.08c.39-.08.67-.14.67-.7v-8.78c0-.42-.11-.51-.88-.67-.57-.11-.82-.16-.82-.43,0-.19.22-.3.62-.3l2.7.07,1.33-.02,3.47-.05c.35,0,.35.28.35.67v1.8c0,.11-.1.18-.22.18-.21,0-.27-.13-.37-.4l-.21-.51c-.26-.61-.38-.89-3.49-.89-.62,0-.72.19-.72.81v3.25c0,.28.15.34.87.34h1.63c.82,0,.96-.59,1.07-1.06.07-.29.13-.55.35-.55.34,0,.34.28.34.45l-.03.5-.05,1.07.04,1.09.03.73c0,.13,0,.39-.28.39-.31,0-.36-.3-.44-.75-.18-1.05-.27-1.2-2.6-1.2-.91,0-.94.12-.94.42v3.64c0,.77,0,.87,2.18.87,1.28,0,1.68-.2,2.05-.61l.78-1.16c.12-.24.2-.38.4-.38ZM257.87,109.86c.11,0,.3.05.3.39,0,.27-.1,1.16-.29,1.95-.09.36-.36.39-.45.39l-1.27-.02-3.74-.05-2.68.07c-.47,0-.56-.12-.56-.37,0-.33.3-.35.5-.37,1.13-.1,1.4-.22,1.4-1.19v-8.29c0-.57-.41-.7-1.23-.73-.22-.01-.74-.04-.74-.39s.39-.35.52-.35l2.27.07,1.06-.04,1.06-.04c.26,0,.69,0,.69.41,0,.29-.51.33-1.01.33-.44,0-.87.08-.87,1.02v8.5c0,.53.21.59.68.59l2.07-.15c.88-.12,1.45-.84,1.84-1.32.2-.25.33-.41.44-.41ZM276.57,111.95c.28.05.5.1.5.35,0,.3-.3.3-.45.3l-2.18-.07-2.08.07c-.23,0-.33-.16-.33-.28,0-.28.38-.34,1.11-.46.06,0,.41-.13.41-.42l-.07-.3-.96-3.19c-.13-.41-.14-.42-1.7-.44-1.06-.02-1.52.04-1.59.17-.45.93-1.32,3.5-1.32,3.68,0,.35.41.47.49.5l.21.05c.53.13.8.2.8.39,0,.3-.37.3-.5.3l-1.65-.07-2.08.07c-.2,0-.3-.1-.3-.3,0-.21.25-.26.53-.32l.47-.12c.36-.13.44-.25.52-.43l4.78-10.87c.05-.09.14-.15.25-.15.15,0,.27.08.29.18l3.49,9.96c.27.77.57,1.2.93,1.31l.41.09ZM270.81,106.55c.78,0,1.2-.04,1.24-.04l-.09-.33s-.99-2.97-1.07-2.98l-1.25,3.02c-.05.12-.09.26-.12.27.07.03.49.07,1.29.07ZM156.41,122.57c.55,0,.89-.03.92-.02l-.07-.24s-.75-2.23-.77-2.24l-.98,2.35c.01.12.32.14.9.14ZM205.57,126.1l.16-5.47.03-.66c0-.9-.16-.92-.55-.96-.87-.08-1.07-.09-1.07-.36,0-.21.26-.32.51-.32l.3.02.68.04.54-.04.23-.02c.31,0,.47.19.62.36,0,0,5.52,6.51,5.58,6.56l.02-.31v-5.62c0-.3-.09-.32-.88-.38h-.22c-.19-.03-.48-.05-.48-.29,0-.31.36-.31.49-.31l1.58.05.71-.03.53-.02c.34,0,.39.18.39.31-.04.25-.29.29-.55.29-.83,0-.86.2-.86,1.24v5.94h-1.84c-1.68-1.96-5.06-5.88-5.07-5.92v.22s.02,4.52.02,4.52l.03.84c0,.13,0,.24.03.33h-.93ZM190.39,126.1c-.86-.83-1.38-2-1.38-3.36,0-2.63,2.04-4.6,4.75-4.6,3.49,0,4.79,2.79,4.79,4.55,0,1.23-.46,2.51-1.41,3.41h-1.48c1.18-1.08,1.26-3.1,1.26-3.62,0-1.88-1.1-3.78-3.21-3.78-1.41,0-3.05,1.07-3.05,4.07,0,1.71.59,2.75,1.31,3.33h-1.57ZM180.63,126.1s0-.06,0-.09v-6.56c0-.39-.1-.45-.51-.52l-.21-.04c-.24-.04-.37-.07-.37-.29,0-.27.28-.27.45-.27l.52.02.8.03.72-.03.54-.02c.35,0,.71,0,.71.24,0,.27-.23.29-.64.32l-.34.03c-.31.03-.33.37-.33.76v6.42h-1.36ZM168.85,126.1c.05-.15.06-.36.06-.64v-5.66c0-.49,0-.54-1.18-.54-.83,0-1.34.62-1.68,1.02-.19.22-.31.37-.44.37-.15,0-.24-.1-.24-.25s.24-.81.5-1.53l.13-.35c.12-.32.19-.53.41-.53.19,0,.22.15.25.26.03.14.06.26.28.29l2.08.1h3.69c.25-.05.32-.22.39-.38.06-.13.12-.26.27-.26.28,0,.28.47.28,1.11,0,.8-.03,1.45-.34,1.45-.23,0-.29-.27-.34-.53l-.14-.41c-.05-.07-.54-.36-1.98-.36-.51,0-.59,0-.59.83v5.67c0,.13,0,.24.03.33h-1.44ZM153.16,126.1l3.53-8.01c.04-.08.12-.12.2-.12.12,0,.22.06.23.14l2.62,7.48c.07.2.14.37.22.51h-1.55s-.01-.06-.01-.06l-.72-2.39c-.1-.3-.1-.31-1.26-.32-.78-.01-1.13.02-1.18.11-.32.65-.86,2.23-.97,2.66h-1.12ZM138.21,126.1c.02-.1.04-.22.04-.39v-6.62c0-.15-.42-.17-.69-.18l-.25-.02c-.29-.02-.44-.04-.44-.25,0-.31.43-.31.62-.31h1.28l.97-.04,1.28-.05c3.4,0,5.42,1.84,5.42,4.93,0,1.16-.58,2.21-1.5,2.93h-1.83c.97-.54,1.86-1.54,1.86-3.2,0-2.83-2.5-4.1-4.27-4.1-1.11,0-1.11.23-1.11.38v6.07c0,.36.12.63.31.84h-1.7ZM122.2,126.1l.17-5.42.03-.71c0-.9-.17-.92-.56-.96-.87-.08-1.07-.09-1.07-.36,0-.21.26-.32.51-.32l.3.02.69.04.54-.04.23-.02c.31,0,.48.19.62.36,0,0,5.52,6.51,5.58,6.56l.02-.31v-5.62c0-.3-.09-.32-.88-.38h-.22c-.19-.03-.48-.05-.48-.29,0-.31.36-.31.49-.31l1.58.05.71-.03.53-.02c.34,0,.4.18.4.31-.04.25-.29.29-.55.29-.83,0-.86.2-.86,1.24v5.94h-1.83c-1.68-1.96-5.05-5.88-5.07-5.92v.22s.02,4.52.02,4.52l.03.84c0,.13.01.24.03.33h-.93ZM112.59,126.1c.47-.48.67-1.26.67-2.4v-4.06c0-.6-.12-.62-.63-.72-.31-.04-.54-.06-.54-.34,0-.15.15-.25.37-.25l1.21.05.61-.03.62-.03c.21,0,.34.11.34.29,0,.24-.18.26-.37.28-.66.09-.92.12-.92.72v4.11c0,.97-.11,1.77-.49,2.36h-.88ZM107.23,126.1c-.26-.53-.34-1.25-.34-2.14l.06-4.12c0-.72-.06-.91-.59-.92-.47-.01-.77-.02-.77-.25s.11-.34.38-.34l1.63.05,1.58-.05c.11,0,.42.07.42.28,0,.31-.23.31-.68.31-.31.04-.49.14-.53.33-.09.4-.14,2.17-.14,4.98,0,.86.16,1.47.53,1.87h-1.54ZM91.79,126.1c-.87-.83-1.38-2-1.38-3.36,0-2.63,2.04-4.6,4.75-4.6,3.49,0,4.79,2.79,4.79,4.55,0,1.23-.46,2.51-1.41,3.41h-1.48c1.18-1.08,1.26-3.1,1.26-3.62,0-1.88-1.1-3.78-3.21-3.78-1.41,0-3.06,1.07-3.06,4.07,0,1.71.57,2.74,1.28,3.33h-1.53ZM79.56,126.1c.02-.14.03-.34.03-.61v-5.95c0-.49-.06-.5-.37-.59l-.47-.08c-.21-.02-.4-.03-.4-.26,0-.24.27-.25.75-.25l2.25.03,1.94-.04,1-.02c.22,0,.37.08.37.21v1.71c0,.15-.07.21-.23.21-.12,0-.2-.07-.22-.13l-.17-.5c-.2-.65-.28-.89-2.24-.89-.79,0-.86.12-.86.49v2.38c0,.4,0,.45.94.45l.43-.03.37-.04c.54-.06.63-.45.72-.79.06-.26.12-.5.37-.5.2,0,.23.18.23.31l-.03,1.17.03,1.46c0,.22-.1.3-.2.3-.24,0-.29-.19-.45-.83-.08-.33-.13-.51-1.59-.51-.74,0-.81.06-.81.31v2.7c0,.11,0,.2.02.28h-1.41Z"/>
  <path class="st0" d="M136.47,63.64c10.04,10.05,22.37-3.94,15.07-11.26-7.53-7.55-16.02,2.63-11.25,7.45,4.65,4.68,9.74-.61,7.38-3.65-1.89-2.43-4.16-.08-3,.5,1.76.88.43,3.55-1.33,2.67-4.04-2.02-.04-12.02,6.51-5.23,5.05,5.23-3.99,15.56-11.68,7.81-7.58-7.64,5.23-21.93,15.48-11.65,4.71,4.72,3.4,12.08-.96,16.43-5.22,5.21-13.44,3.95-18.34-.96-5.72-5.73-4.49-14.81.96-20.25,6.25-6.24,16.18-5.03,22.15.96,6.76,6.76,5.57,17.55-.95,24.07-7.28,7.27-18.92,6.1-25.98-.96-7.79-7.79-6.64-20.29.96-27.88,8.31-8.31,21.67-7.17,29.79.95,8.83,8.84,7.7,23.05-.96,31.7-9.36,9.36-24.42,8.24-33.61-.96-9.88-9.88-8.77-25.8.95-35.52,10.4-10.4,27.18-9.3,37.43.95,10.92,10.93,9.83,28.56-.95,39.34-11.45,11.45-29.94,10.36-41.25-.95-11.96-11.97-10.88-31.32.96-43.16,12.49-12.49,32.7-11.42,45.07.95,13.01,13.02,11.94,34.08-.96,46.98-13.54,13.54-35.46,12.47-48.88-.95-14.06-14.06-13-36.84.95-50.79,12.72-12.72,32.31-13.54,46.72-3.95.28.19.56.38.84.59l.28.2c8.78,6.59,14.47,17.1,14.47,28.93,0,9.86-3.96,18.79-10.37,25.31,12.27-13.72,11.82-34.84-1.35-48.01-13.42-13.43-35.16-14.27-48.49-.95-12.9,12.9-13.75,33.79-.96,46.58,12.37,12.38,32.41,13.22,44.67.96,11.85-11.86,12.69-31.03.96-42.76-11.33-11.33-29.64-12.16-40.85-.96-10.81,10.81-11.63,28.26-.95,38.95,10.28,10.28,26.88,11.1,37.03.95,9.76-9.76,10.58-25.5.95-35.12-9.24-9.24-24.12-10.04-33.22-.96-8.71,8.71-9.51,22.74-.96,31.3,8.2,8.19,21.37,8.98,29.4.95,7.68-7.67,8.45-19.99.96-27.48-7.15-7.16-18.61-7.92-25.58-.96-6.63,6.63-7.39,17.23-.95,23.67,6.12,6.12,15.86,6.85,21.76.96,5.6-5.59,6.31-14.48.95-19.85-5.08-5.09-13.11-5.78-17.94-.96-4.58,4.57-5.24,11.74-.95,16.03"/>
  <path class="st0" d="M29.08,100.93l-.95.04-2.1-.07c-.17,0-.64,0-.64.39,0,.3.37.33.62.35.07,0,.31.02.31.02,1.06.08,1.19.11,1.19.53v7.48c0,.1-.03.43-.03.43l-.11-.06-7.35-8.67c-.2-.23-.4-.47-.8-.47l-.3.03-.73.05-.92-.05-.39-.03c-.32,0-.65.14-.65.41,0,.33.23.35,1.2.43l.19.02c.52.05.76.07.76,1.3l-.04.96-.22,7.41c0,.28-.14.4-.48.44-1.27.11-1.43.12-1.43.46,0,.13.07.28.41.28l.62-.02,1.78-.05,2.18.07c.18,0,.43,0,.43-.31s-.42-.35-1.12-.4l-.41-.03c-.38-.03-.82-.07-.82-1.07l-.04-1.12s-.04-6.02-.04-6.02v-.3c.08.06,8.05,9.31,8.05,9.31.24.28.49.55.77.55.39,0,.39-.53.39-.78v-9.1c0-1.38.04-1.67,1.17-1.67.31,0,.65-.03.71-.36,0-.15-.07-.38-.5-.38l-.7.03"/>
  <path class="st0" d="M43.58,100.95l-1.34.02-2.7-.07c-.39,0-.62.11-.62.3,0,.28.26.33.83.43.78.17.88.25.88.67v8.78c0,.57-.28.63-.67.7l-.31.08s-.34.08-.34.08c-.29.06-.52.1-.52.36,0,.3.36.3.52.3h.16s2.3-.07,2.3-.07h5.35c.3,0,.44-.12.5-.45l.36-1.91s.04-.16.04-.16l.03-.15c0-.07,0-.26-.26-.26-.2,0-.27.14-.39.38l-.78,1.16c-.36.41-.76.61-2.05.61-2.18,0-2.18-.1-2.18-.87v-3.64c0-.3.04-.42.94-.42,2.33,0,2.42.15,2.57,1.05l.03.16c.07.45.12.74.43.74.28,0,.28-.26.28-.39l-.03-.73-.04-1.09.05-1.07.03-.5c0-.17,0-.45-.33-.45-.23,0-.29.25-.36.55-.11.47-.25,1.06-1.07,1.06h-1.63c-.71,0-.87-.06-.87-.34v-3.25c0-.62.1-.81.72-.81,3.11,0,3.23.28,3.49.89,0,.02.21.51.21.51.1.27.15.4.37.4.12,0,.22-.07.22-.18v-1.8c0-.39,0-.67-.35-.67l-3.47.05"/>
  <path class="st0" d="M65.61,109.86c-.12,0-.24.16-.44.41-.38.47-.96,1.2-1.84,1.32l-2.07.15c-.47,0-.68-.06-.68-.59v-8.5c0-.94.43-1.02.87-1.02.47,0,1.01-.04,1.01-.33,0-.41-.43-.41-.69-.41l-1.07.04-1.05.04-2.27-.07c-.13,0-.52,0-.52.35s.52.38.74.39c.82.04,1.23.16,1.23.73v8.29c0,.97-.27,1.09-1.4,1.19-.2.02-.5.04-.5.37,0,.25.09.37.56.37l2.68-.07,3.74.05,1.26.02c.08,0,.35-.03.44-.39.19-.8.29-1.68.29-1.95,0-.34-.19-.39-.3-.39"/>
  <path class="st0" d="M124.32,100.9l-.7.03-.95.04-2.1-.07c-.17,0-.63,0-.63.39,0,.3.37.33.62.35.07,0,.31.02.31.02,1.06.08,1.2.11,1.2.53v7.48c0,.1-.03.43-.03.43l-.11-.06-7.35-8.67c-.2-.23-.4-.47-.81-.47l-.31.03-.73.05-.92-.05-.39-.03c-.32,0-.65.14-.65.41,0,.33.23.35,1.2.43l.2.02c.52.05.76.07.76,1.3l-.04.96-.22,7.41c0,.28-.14.4-.48.44-1.27.11-1.43.12-1.43.46,0,.13.07.28.41.28l.62-.02,1.79-.05,2.18.07c.18,0,.43,0,.43-.31s-.42-.35-1.12-.4l-.41-.03c-.38-.03-.82-.07-.82-1.07l-.04-1.12s-.04-6.02-.04-6.02v-.3c.08.06,8.05,9.31,8.05,9.31.24.28.49.55.77.55.39,0,.39-.53.39-.78v-9.1c0-1.38.04-1.67,1.16-1.67.32,0,.66-.03.71-.36,0-.15-.07-.38-.5-.38M78.21,105.5c-1.29-.66-2.4-1.23-2.4-2.41,0-1.05.74-1.68,1.98-1.68,1.65,0,1.91.98,2.1,1.7.1.37.18.67.45.67.16,0,.24-.11.24-.22v-1.55c0-.78-.06-.99-1.5-1.27,0,0-1.03-.1-1.03-.1-2.48,0-3.62,1.67-3.62,3.22,0,1.95,1.57,2.79,3.1,3.61,1.3.7,2.53,1.36,2.53,2.66,0,.97-.75,1.95-2.42,1.95-.72,0-1.7-.24-2.34-1.39-.27-.49-.31-.88-.34-1.13-.03-.27-.05-.48-.36-.48-.45,0-.5,1.19-.5,1.7,0,1.14.2,1.54,1.43,1.79l1.83.28c2.56,0,4.08-1.33,4.08-3.56s-1.71-3.03-3.23-3.8ZM96.54,112.15c-1.44,0-4.17-1.12-4.17-5.37,0-4.02,2.2-5.44,4.09-5.44,2.82,0,4.3,2.54,4.3,5.05,0,.96-.2,5.76-4.22,5.76ZM96.54,100.63c-3.59,0-6.3,2.63-6.3,6.11s2.61,6.11,6.21,6.11c4.43,0,6.45-3.21,6.45-6.18,0-2.33-1.72-6.04-6.36-6.04Z"/>
  <path class="st0" d="M158.44,101.68s.26-.03.26-.03c.31-.02.7-.05.7-.42,0-.13-.16-.3-.29-.3l-.77.02-.77.02-1.48-.04c-.3,0-.48.43-.58.69-.03.07-3.35,7.59-3.35,7.59-.09.07-.12.05-.13.02,0,0-3.72-8.09-3.72-8.09-.07-.14-.2-.21-.38-.21l-1.46.04-1.28-.04c-.45,0-.54.12-.54.32,0,.21.21.26.55.34l.35.08c1.05.29,1.15.32,1.15.66l-.02.84s-.62,8.1-.62,8.1c-.01.22-.42.5-1.14.57-.36.03-.7.06-.7.43,0,.19.17.31.45.31l2.08-.07,2.08.07c.26,0,.59,0,.59-.3,0-.26-.24-.3-.77-.39l-.32-.05c-.51-.08-1.05-.27-1.05-.55v-5.08c0-.78,0-2.58.1-2.74.09.16,1.5,3.21,1.62,3.5l1.69,3.98c.3.81.57,1.23.82,1.23.11,0,.26-.05.31-.18l3.45-7.97c.09-.07.17-.06.17.35v6.79c0,.48-.04.51-.94.68-.37.05-.75.11-.75.35,0,.39.38.39.54.39l2.51-.07.53.03,1.03.04c.64,0,.96,0,.96-.31,0-.26-.37-.36-.73-.43-1.18-.22-1.38-.38-1.38-1.04v-7.75c0-1.19.22-1.23,1.26-1.39"/>
  <path class="st0" d="M173.22,106.55c-.81,0-1.22-.04-1.29-.07.02,0,.07-.15.07-.15l.05-.12h0s1.26-3.02,1.26-3.02c.07.01,1.07,2.98,1.07,2.98.02.07.09.33.09.33-.04,0-.46.04-1.24.04M178.98,111.95l-.42-.09c-.35-.11-.66-.55-.93-1.31l-3.49-9.96c-.02-.1-.15-.18-.29-.18-.11,0-.21.06-.25.15,0,0-4.79,10.86-4.79,10.86-.08.18-.16.3-.52.43l-.47.12c-.29.05-.53.11-.53.32,0,.2.1.3.3.3l2.08-.07,1.65.07c.14,0,.5,0,.5-.3,0-.19-.28-.26-.8-.39l-.21-.05c-.08-.02-.49-.15-.49-.5,0-.19.87-2.76,1.33-3.68.07-.13.53-.18,1.59-.17,1.56.02,1.57.03,1.7.44,0,0,.96,3.18.96,3.18l.07.31c0,.26-.31.4-.41.42-.73.12-1.11.18-1.11.46,0,.11.1.28.33.28l2.08-.07,2.18.07c.14,0,.45,0,.45-.3,0-.25-.22-.29-.5-.35Z"/>
  <path class="st0" d="M201,100.9l-.7.03-.95.04-2.1-.07c-.17,0-.63,0-.63.39,0,.3.37.33.62.35.07,0,.31.02.31.02,1.06.08,1.19.11,1.19.53v7.48c0,.1-.03.43-.03.43l-.11-.06-7.35-8.67c-.2-.23-.41-.47-.8-.47l-.31.03-.72.05-.92-.05-.4-.03c-.32,0-.65.14-.65.41,0,.33.23.35,1.2.43l.2.02c.52.05.76.07.76,1.3l-.04.96-.22,7.41c0,.28-.14.4-.48.44-1.27.11-1.43.12-1.43.46,0,.13.07.28.41.28l.62-.02,1.78-.05,2.17.07c.18,0,.43,0,.43-.31s-.42-.35-1.12-.4l-.41-.03c-.38-.03-.82-.07-.82-1.07l-.03-1.12s-.04-6.02-.04-6.02l.02-.3c.07.06,8.04,9.31,8.04,9.31.24.28.49.55.77.55.39,0,.39-.53.39-.78v-9.1c0-1.38.04-1.67,1.17-1.67.32,0,.66-.03.71-.36,0-.15-.07-.38-.5-.38"/>
  <path class="st0" d="M215.91,111.93c-1.08,0-2.33-.48-2.33-1.83v-8.08c0-.21,0-.53,1.51-.53,2.37,0,5.71,1.7,5.71,5.48s-3.35,4.95-4.88,4.95M215.5,100.79l-1.7.06-1.3.05h-1.71c-.24,0-.81,0-.81.39,0,.26.18.27.57.31.06,0,.34.02.34.02.39.02.93.04.93.27v8.81c0,1.01-.37,1.08-.76,1.15-.53.08-.78.24-.78.49,0,.17.14.25.41.25l1.69-.07h4.43c3.25,0,5.89-2.33,5.89-5.19,0-4.1-2.69-6.54-7.2-6.54Z"/>
  <path class="st0" d="M239.67,109.58c-.2,0-.27.14-.4.38l-.78,1.16c-.36.41-.76.61-2.05.61-2.18,0-2.18-.1-2.18-.87v-3.64c0-.3.04-.42.94-.42,2.33,0,2.42.15,2.58,1.05l.03.16c.07.45.12.75.44.75.28,0,.28-.26.28-.39l-.03-.73-.04-1.09.05-1.07.03-.5c0-.17,0-.45-.34-.45-.23,0-.29.25-.35.55-.11.47-.25,1.06-1.07,1.06h-1.63c-.71,0-.87-.06-.87-.34v-3.25c0-.62.1-.81.72-.81,3.11,0,3.23.28,3.49.89,0,.02.21.51.21.51.1.27.15.4.37.4.12,0,.22-.07.22-.18v-1.8c0-.39,0-.67-.35-.67l-3.47.05-1.33.02-2.7-.07c-.4,0-.62.11-.62.3,0,.28.26.33.82.43.77.17.88.25.88.67v8.78c0,.57-.28.63-.67.7l-.31.08-.34.08c-.29.06-.51.1-.51.36,0,.3.37.3.52.3h.16s2.3-.07,2.3-.07h5.35c.3,0,.44-.12.5-.45l.36-1.91s.04-.16.04-.16l.04-.15c0-.07,0-.26-.26-.26"/>
  <path class="st0" d="M257.87,109.86c-.12,0-.24.16-.44.41-.38.47-.96,1.2-1.84,1.32l-2.07.15c-.47,0-.68-.06-.68-.59v-8.5c0-.94.43-1.02.87-1.02.5,0,1.01-.04,1.01-.33,0-.41-.43-.41-.69-.41l-1.06.04-1.06.04-2.27-.07c-.13,0-.52,0-.52.35s.52.38.74.39c.81.04,1.23.16,1.23.73v8.29c0,.97-.26,1.09-1.4,1.19-.2.02-.5.04-.5.37,0,.25.09.37.56.37l2.68-.07,3.74.05,1.27.02c.08,0,.36-.03.45-.39.19-.79.29-1.68.29-1.95,0-.34-.19-.39-.3-.39"/>
  <path class="st0" d="M270.81,106.55c-.8,0-1.22-.04-1.29-.07.03,0,.07-.15.07-.15l.05-.12h0s1.26-3.02,1.26-3.02c.07.01,1.07,2.98,1.07,2.98.02.07.09.33.09.33-.04,0-.46.04-1.24.04M276.57,111.95l-.41-.09c-.36-.11-.66-.54-.93-1.31l-3.49-9.96c-.03-.1-.15-.18-.29-.18-.11,0-.21.06-.25.15,0,0-4.78,10.87-4.78,10.87-.08.18-.16.3-.52.43l-.47.12c-.28.05-.53.11-.53.32,0,.2.1.3.3.3l2.08-.07,1.65.07c.14,0,.5,0,.5-.3,0-.19-.27-.26-.8-.39l-.21-.05c-.08-.02-.49-.15-.49-.5,0-.19.87-2.76,1.32-3.68.07-.13.53-.18,1.59-.17,1.56.02,1.56.03,1.7.44,0,0,.92,3.04.92,3.04,0,0,.04.15.04.15l.07.3c0,.28-.35.41-.41.42-.73.12-1.11.18-1.11.46,0,.11.11.28.33.28l2.08-.07,2.18.07c.14,0,.45,0,.45-.3,0-.25-.22-.29-.5-.35Z"/>
  <path class="st0" d="M84.3,118.33l-1,.02-1.94.04-2.25-.03c-.48,0-.75,0-.75.25,0,.22.18.24.4.26l.47.08c.31.09.37.1.37.59v5.95c0,.92-.13,1.03-.4,1.07-.8.1-.92.12-.92.33,0,.27.35.27.52.27l1.59-.06,1.5.04h.25s.37-.09.37-.09l.05-.19c0-.23-.25-.26-.47-.28l-.17-.02c-.87-.12-.97-.2-.97-.73v-2.7c0-.25.07-.31.81-.31,1.47,0,1.51.18,1.59.51.16.63.2.83.45.83.09,0,.2-.08.2-.3l-.03-1.46.03-1.17c0-.13-.03-.31-.23-.31-.25,0-.31.25-.37.5-.09.34-.18.74-.72.79,0,0-.37.04-.37.04l-.43.03c-.94,0-.94-.05-.94-.45v-2.38c0-.37.07-.49.86-.49,1.96,0,2.04.24,2.24.89l.17.5c.02.06.1.13.22.13.16,0,.23-.07.23-.21v-1.71c0-.13-.14-.21-.37-.21"/>
  <path class="st0" d="M95.16,126.78c-1.16,0-3.11-.84-3.11-4.01,0-3,1.65-4.07,3.06-4.07,2.11,0,3.21,1.9,3.21,3.78,0,.72-.15,4.31-3.15,4.31M95.16,118.13c-2.71,0-4.75,1.98-4.75,4.6s1.97,4.61,4.68,4.61c3.34,0,4.86-2.42,4.86-4.66,0-1.76-1.3-4.55-4.79-4.55Z"/>
  <path class="st0" d="M114.9,118.33l-.62.03-.61.03-1.21-.05c-.22,0-.37.1-.37.25,0,.27.22.3.4.32l.13.02c.51.1.63.12.63.72v4.06c0,2.18-.73,3.03-2.62,3.03-1.7,0-2.39-.72-2.39-2.49,0-2.81.05-4.58.14-4.98.04-.18.21-.29.53-.33.45,0,.68,0,.68-.31,0-.21-.31-.28-.42-.28l-1.58.05-1.63-.05c-.27,0-.38.1-.38.34s.31.24.77.25c.53.01.59.2.59.92l-.06,4.12c0,2.24.5,3.38,3.23,3.38,3.21,0,3.84-1.32,3.84-3.6v-4.11c0-.6.25-.63.75-.71,0,0,.16-.02.16-.02.19-.02.37-.04.37-.28,0-.19-.13-.29-.34-.29"/>
  <path class="st0" d="M130.97,118.33l-.53.02-.71.03-1.58-.05c-.13,0-.49,0-.49.31,0,.25.29.27.48.28.05,0,.22.01.22.01.79.06.88.08.88.38v5.62c0,.07-.02.31-.02.31-.05-.05-5.58-6.56-5.58-6.56-.14-.17-.31-.36-.62-.36l-.23.02-.54.04-.69-.04-.3-.02c-.24,0-.51.11-.51.32,0,.27.2.28.92.34h.14c.38.05.56.07.56.97l-.03.71s-.17,5.56-.17,5.56c0,.17-.06.29-.34.31-.95.08-1.09.1-1.09.37,0,.1.06.22.33.22l.46-.02,1.34-.04,1.63.06c.14,0,.34,0,.34-.25s-.32-.28-.85-.31l-.31-.03c-.28-.02-.6-.05-.6-.79l-.03-.84s-.03-4.52-.03-4.52v-.22c.03.05,6.01,7,6.01,7,.18.21.38.42.59.42.31,0,.31-.43.31-.61v-6.83c0-1.04.03-1.24.86-1.24.26,0,.51-.04.55-.29,0-.12-.05-.31-.4-.31"/>
  <path class="st0" d="M141.32,126.61c-.8,0-1.73-.35-1.73-1.35v-6.07c0-.15,0-.38,1.11-.38,1.77,0,4.27,1.27,4.27,4.1s-2.51,3.7-3.65,3.7M141.02,118.24l-1.28.05-.97.04h-1.28c-.19,0-.62,0-.62.31,0,.21.15.23.44.25.05,0,.25.02.25.02.28.01.69.03.69.18v6.62c0,.74-.26.79-.56.84-.41.06-.59.19-.59.38,0,.14.11.21.32.21l1.27-.06h3.32c2.44,0,4.44-1.75,4.44-3.91,0-3.09-2.03-4.93-5.42-4.93Z"/>
  <path class="st0" d="M156.41,122.57c-.58,0-.89-.02-.95-.05.02-.01.05-.09.05-.09l.98-2.35s.77,2.24.77,2.24c.02.05.07.24.07.24-.03-.01-.36.02-.92.02M160.73,126.62l-.3-.07c-.26-.08-.49-.41-.69-.97,0,0-2.62-7.48-2.62-7.48-.02-.08-.12-.14-.23-.14-.09,0-.17.04-.2.12,0,0-3.59,8.16-3.59,8.16,0,0-.38.31-.38.31l-.36.09c-.22.04-.41.08-.41.26,0,.16.08.24.24.24l1.56-.06,1.24.06c.1,0,.4,0,.4-.24,0-.16-.21-.21-.62-.31l-.16-.04s-.36-.09-.36-.35c0-.14.64-2.03.99-2.76.05-.09.4-.13,1.18-.11,1.16.01,1.16.02,1.26.32,0,0,.69,2.28.69,2.28,0,0,.03.11.03.11l.05.22c0,.2-.25.29-.29.3-.56.09-.85.14-.85.37,0,.09.09.22.27.22l1.56-.06,1.64.06c.1,0,.35,0,.35-.24,0-.2-.18-.24-.39-.28Z"/>
  <path class="st0" d="M173.38,117.99c-.16,0-.21.13-.27.26-.07.16-.14.33-.39.37h-.43s-.15.01-.15.01h-3.11l-2.08-.1c-.22-.03-.25-.15-.28-.29-.03-.11-.06-.26-.25-.26-.22,0-.3.21-.41.53l-.13.35c-.26.71-.5,1.37-.5,1.53s.09.25.24.25c.13,0,.25-.15.44-.37.34-.41.84-1.02,1.68-1.02,1.18,0,1.18.04,1.18.54v5.66c0,.79-.12.98-.72,1.1l-.22.04c-.31.05-.64.1-.64.34,0,.14.11.21.31.21l1.99-.06,1.82.06c.24,0,.37-.08.37-.25,0-.24-.28-.28-.59-.31l-.22-.03c-.59-.08-.74-.18-.74-.79v-5.67c0-.83.08-.83.59-.83,1.45,0,1.93.29,1.98.36,0,0,.14.41.14.41.06.26.12.53.34.53.31,0,.34-.66.34-1.45,0-.65,0-1.11-.28-1.11"/>
  <path class="st0" d="M182.32,118.92l.34-.03c.41-.03.64-.05.64-.32,0-.24-.36-.24-.71-.24l-.54.02-.72.03-.8-.03-.52-.02c-.17,0-.45,0-.45.27,0,.22.13.24.37.29l.21.04c.41.07.51.13.51.52v6.56c0,.42-.32.51-.63.55l-.19.02c-.46.05-.59.06-.59.29,0,.28.39.28.59.28l.49-.02.95-.04.92.04.46.02c.24,0,.59,0,.59-.24,0-.22-.24-.26-.57-.31l-.25-.04c-.2-.04-.42-.11-.42-.41v-6.46c0-.39.02-.72.33-.76"/>
  <path class="st0" d="M193.76,126.78c-1.08,0-3.11-.84-3.11-4.01,0-3,1.64-4.07,3.05-4.07,2.11,0,3.21,1.9,3.21,3.78,0,.72-.15,4.31-3.15,4.31M193.76,118.13c-2.7,0-4.75,1.98-4.75,4.6s1.97,4.61,4.68,4.61c3.34,0,4.86-2.42,4.86-4.66,0-1.76-1.3-4.55-4.79-4.55Z"/>
  <path class="st0" d="M214.34,118.33l-.53.02-.71.03-1.58-.05c-.13,0-.49,0-.49.31,0,.25.29.27.48.28.05,0,.22.01.22.01.8.06.88.08.88.38v5.62c0,.08-.02.31-.02.31-.05-.05-5.58-6.56-5.58-6.56-.15-.17-.31-.36-.62-.36l-.23.02-.54.04-.68-.04-.3-.02c-.25,0-.51.11-.51.32,0,.27.2.28.92.34h.15c.39.05.55.07.55.97l-.03.66c0,.05-.17,5.61-.17,5.61,0,.17-.06.29-.35.31-.95.08-1.09.1-1.09.37,0,.1.06.22.32.22l.47-.02,1.34-.04,1.63.06c.13,0,.34,0,.34-.25s-.32-.28-.85-.31l-.32-.03c-.28-.02-.6-.05-.6-.79l-.03-.84s-.03-4.52-.03-4.52v-.22c.03.05,6.02,7,6.02,7,.18.21.37.42.59.42.31,0,.31-.43.31-.61v-6.83c0-1.04.02-1.24.86-1.24.26,0,.51-.04.55-.29,0-.12-.05-.31-.39-.31"/>
  <path class="st0" d="M136.47,63.64c-4.29-4.29-3.62-11.46.95-16.03,4.83-4.82,12.86-4.13,17.94.96,5.36,5.36,4.65,14.25-.95,19.85-5.9,5.9-15.65,5.16-21.76-.96-6.43-6.43-5.68-17.04.95-23.67,6.97-6.97,18.42-6.2,25.58.96,7.5,7.5,6.72,19.81-.96,27.48-8.03,8.03-21.2,7.24-29.4-.95-8.56-8.56-7.76-22.59.96-31.3,9.09-9.09,23.98-8.28,33.22.96,9.62,9.62,8.81,25.36-.95,35.12-10.15,10.15-26.75,9.33-37.03-.95-10.68-10.68-9.85-28.14.95-38.95,11.21-11.2,29.52-10.37,40.85.96,11.74,11.74,10.9,30.91-.96,42.76-12.26,12.26-32.29,11.42-44.67-.96-12.79-12.79-11.95-33.68.96-46.58,13.32-13.32,35.07-12.48,48.49.95,13.17,13.17,13.62,34.3,1.35,48.01,6.4-6.52,10.37-15.45,10.37-25.31,0-11.83-5.69-22.33-14.47-28.93-.09-.07-.19-.13-.28-.2-.28-.2-.56-.39-.84-.59-14.41-9.6-34-8.77-46.72,3.95-13.96,13.96-15.02,36.73-.95,50.79,13.43,13.43,35.35,14.49,48.88.95,12.9-12.9,13.97-33.96.96-46.98-12.37-12.37-32.58-13.45-45.07-.95-11.84,11.84-12.92,31.19-.96,43.16,11.31,11.31,29.81,12.4,41.25.95,10.78-10.78,11.88-28.42.95-39.34-10.25-10.25-27.03-11.35-37.43-.95-9.72,9.72-10.83,25.64-.95,35.52,9.19,9.19,24.26,10.31,33.61.96,8.66-8.65,9.79-22.87.96-31.7-8.12-8.12-21.48-9.26-29.79-.95-7.59,7.59-8.75,20.09-.96,27.88,7.05,7.06,18.7,8.23,25.98.96,6.52-6.52,7.71-17.3.95-24.07-5.98-5.98-15.91-7.19-22.15-.96-5.45,5.44-6.68,14.51-.96,20.25,4.9,4.9,13.11,6.17,18.34.96,4.36-4.35,5.67-11.71.96-16.43-10.25-10.29-23.06,4.01-15.48,11.65,7.69,7.75,16.73-2.58,11.68-7.81-6.56-6.79-10.55,3.21-6.51,5.23,1.76.88,3.1-1.79,1.33-2.67-1.16-.58,1.11-2.93,3-.5,2.36,3.04-2.74,8.33-7.38,3.65-4.77-4.81,3.72-15,11.25-7.45,7.3,7.32-5.04,21.31-15.07,11.26"/>
  <path class="st0" d="M89.4,144.99c.04-.18.12-.43.12-.75,0-.27-.25-.36-.43-.39-.48-.09-.94-.09-.94-.34,0-.12.14-.23.27-.23.32,0,.92.11,1.87.11.62,0,1.49-.11,1.9-.11.18,0,.27.05.27.2,0,.25-.57.27-.98.37-.5.12-.53.41-.69,1.05l-1.88,7.87c-.05.2-.09.36-.09.53,0,.34.16.43,1.03.43.46,0,2.59-.05,3.71-.5,1.42-.57,1.46-1.78,1.74-1.78.25,0,.3.11.3.27,0,.21-.52,1.51-.62,1.99-.11.39-.2.48-.35.48h-6.22c-1.28,0-1.55.11-1.95.11-.2,0-.29-.02-.29-.18,0-.37,1.03-.16,1.19-.82l2.04-8.32"/>
  <path class="st0" d="M101.47,144.06c0,.36-.34.71-.71.71s-.71-.36-.71-.71.34-.71.71-.71.71.36.71.71M98.89,152.61c-.11.23-.25.44-.25.6,0,.11.02.21.2.21.14,0,.35-.14.82-.45.53-.35.73-.57.83-.57s.12.07.12.18c0,.21-1.85,1.87-2.9,1.87-.32,0-.51-.11-.51-.39,0-.14.05-.28.12-.42l2.04-4.14c.2-.41.35-.73.35-.96,0-.14-.09-.18-.16-.18-.27,0-1.21.94-1.46.94-.11,0-.14-.05-.14-.16,0-.14.16-.21.3-.35.21-.21,1.67-1.57,2.45-1.57.27,0,.37.3.37.48,0,.23-.16.66-.25.85l-1.95,4.05Z"/>
  <path class="st0" d="M104.9,148.96c.04-.11.07-.23.07-.35,0-.11-.07-.25-.25-.25-.71,0-1.65,1.81-2.01,1.81-.12,0-.16-.05-.16-.16,0-.3,1.99-2.83,3.06-2.83.37,0,.66.21.66.61,0,.21-.07.48-.16.73l-1.37,3.55c-.07.19-.2.53-.2.8,0,.3.11.6.43.6,1.08,0,3.64-3.06,3.64-4.64,0-.53-.12-.87-.12-1.14,0-.32.14-.62.48-.62.27,0,.43.32.43.94,0,.98-.32,1.74-1.28,3.16-.87,1.28-2.84,3.29-3.93,3.29-.43,0-.85-.39-.85-.96,0-.25.04-.51.12-.75l1.44-3.8"/>
  <path class="st0" d="M114.74,144.06c0,.36-.34.71-.71.71s-.71-.36-.71-.71.34-.71.71-.71.71.36.71.71M112.17,152.61c-.11.23-.25.44-.25.6,0,.11.02.21.19.21.14,0,.36-.14.82-.45.53-.35.73-.57.83-.57s.12.07.12.18c0,.21-1.85,1.87-2.9,1.87-.32,0-.52-.11-.52-.39,0-.14.05-.28.12-.42l2.04-4.14c.2-.41.36-.73.36-.96,0-.14-.09-.18-.16-.18-.27,0-1.21.94-1.46.94-.11,0-.14-.05-.14-.16,0-.14.16-.21.3-.35.21-.21,1.67-1.57,2.45-1.57.27,0,.37.3.37.48,0,.23-.16.66-.25.85l-1.95,4.05Z"/>
  <path class="st0" d="M121.03,152.84c-.07.14-.16.27-.16.35,0,.14.09.21.2.21.44,0,1.39-1.15,1.51-1.15.11,0,.16.07.16.14,0,.37-1.53,1.97-2.74,1.97-.32,0-.45-.11-.45-.3,0-.18.12-.48.25-.76l2.03-4.32c.14-.3.18-.53.18-.71,0-.29-.16-.48-.41-.48-.64,0-1.26.73-3.3,4.03-.37.6-.69,1.15-1.03,1.92-.18.39-.3.62-.59.62-.3,0-.43-.11-.43-.32,0-.16.12-.44.18-.59l1.69-4.51c.09-.25.18-.48.18-.6,0-.14-.11-.23-.27-.23-.46,0-1.3,1.31-1.48,1.31-.09,0-.14-.07-.14-.14,0-.2.21-.41.32-.57.25-.35,1.3-1.53,1.99-1.53.43,0,.55.27.55.75,0,.69-1.07,2.95-1.07,3.15,0,.03.02.09.04.09.05,0,.12-.11.21-.25.32-.52,1.88-3.73,3.54-3.73.68,0,1.08.36,1.08.98,0,.44-.27,1-.46,1.4l-1.58,3.27"/>
  <path class="st0" d="M127.09,151.95c.94,0,2.11-1.38,2.11-3.16,0-.53-.09-1.28-.83-1.28-1.28,0-1.9,2.65-1.9,3.39,0,.59.2,1.05.62,1.05M129.06,156.38c0-.96-2.31-2.06-2.4-2.06-.16,0-1.87.69-1.87,1.83,0,1.42,1.49,1.56,2.06,1.56,1.79,0,2.2-.78,2.2-1.33ZM131.25,147.88c.12,0,.16.04.16.25,0,.19-.05.21-.16.21h-1.33c.04.23.07.48.07.87,0,.64-.18,1.16-.53,1.67-1.12,1.62-3.02,1.21-3.02,1.76s.3.55,1.28,1.1c.85.48,2.13,1.05,2.13,2.52,0,1.03-1.19,1.83-2.98,1.83-2.06,0-3.06-.94-3.06-1.92,0-.82,1.03-1.69,2.59-2.12-.32-.18-1.03-.66-1.03-1.17,0-.3.83-.51,1.01-.71-.46-.55-.8-1.16-.8-1.92,0-1.58,1.37-3.07,2.67-3.07.5,0,.8.18,1.08.34.3.18.57.36.98.36h.94Z"/>
  <path class="st0" d="M141.91,148.04c.23,0,.28-.05.28-.28,0-.18-.03-.29-.23-.29h-1.28l.48-1.28c.04-.11.07-.23.07-.34s-.11-.2-.44-.2c-.3,0-.43.07-.46.18l-.62,1.63h-1.12c-.2,0-.3.05-.3.29s.07.28.28.28h.94l-1.92,5.37c-.07.21-.21.46-.21.73,0,.2.18.3.37.3.85,0,3.16-2.19,3.16-2.77,0-.09-.05-.14-.14-.14-.2,0-1.12,1.57-1.9,1.57-.12,0-.16-.06-.16-.16,0-.12.12-.37.18-.53l1.63-4.35h1.39"/>
  <path class="st0" d="M145.23,149.96c-.18.5-.36.87-.36,1s.04.16.05.16c.05,0,.2-.28.34-.5,1.79-2.68,2.7-3.43,3.55-3.43,1.1,0,1.26,1.17,1.26,1.76,0,2.47-1.74,5.42-3.98,5.42-.28,0-.64-.16-.64-.53,0-.32.23-.5.6-.5.45,0,.53.32.98.32,1,0,2.19-4.37,2.19-5.12,0-.37-.2-.64-.64-.64-.82,0-1.99,1.41-3.55,3.73-.76,1.14-1.32,2.74-1.71,2.74-.34,0-.48-.09-.48-.27,0-.14.05-.34.21-.76l3.39-9.6c.05-.12.11-.27.11-.41,0-.52-.8-.52-.8-.75,0-.14.21-.16.36-.16.54,0,1.07-.07,1.6-.07.23,0,.32.05.32.2s-.37.92-.57,1.44l-2.24,5.97"/>
  <path class="st0" d="M155.15,147.51c.44,0,.55.34.55.66,0,.73-.71,2.1-2.93,2.75.64-2.47,1.94-3.41,2.38-3.41M155.24,147.19c-1.62,0-3.71,2.86-3.71,5.23,0,1.14.43,2.06,1.49,2.06,1.4,0,2.7-2.17,2.7-2.33,0-.11-.04-.16-.14-.16-.14,0-.99,1.42-2.01,1.42-.67,0-1.05-.27-1.05-1.26,0-.23.04-.57.14-.83,2.98-.5,3.64-2.15,3.64-2.79,0-.6-.3-1.33-1.07-1.33Z"/>
  <path class="st0" d="M165.35,144.99c.04-.18.12-.43.12-.75,0-.27-.25-.36-.43-.39-.48-.09-.94-.09-.94-.34,0-.12.14-.23.27-.23.32,0,.92.11,1.86.11.62,0,1.49-.11,1.9-.11.18,0,.27.05.27.2,0,.25-.57.27-.98.37-.5.12-.53.41-.69,1.05l-1.88,7.87c-.05.2-.09.36-.09.53,0,.34.16.43,1.03.43.46,0,2.59-.05,3.71-.5,1.42-.57,1.46-1.78,1.74-1.78.25,0,.3.11.3.27,0,.21-.51,1.51-.62,1.99-.11.39-.19.48-.35.48h-6.22c-1.28,0-1.55.11-1.95.11-.2,0-.28-.02-.28-.18,0-.37,1.03-.16,1.19-.82l2.04-8.32"/>
  <path class="st0" d="M174.16,150.92c2.22-.66,2.93-2.03,2.93-2.75,0-.32-.11-.66-.55-.66s-1.74.94-2.38,3.41M177.7,148.52c0,.64-.66,2.29-3.64,2.79-.11.27-.14.6-.14.83,0,1,.37,1.26,1.05,1.26,1.01,0,1.87-1.42,2.01-1.42.11,0,.14.05.14.16,0,.16-1.3,2.33-2.7,2.33-1.07,0-1.49-.92-1.49-2.06,0-2.36,2.1-5.23,3.71-5.23.76,0,1.07.73,1.07,1.33Z"/>
  <path class="st0" d="M181.16,151.95c.94,0,2.11-1.38,2.11-3.16,0-.53-.09-1.28-.83-1.28-1.28,0-1.9,2.65-1.9,3.39,0,.59.19,1.05.62,1.05M183.14,156.38c0-.96-2.31-2.06-2.4-2.06-.16,0-1.86.69-1.86,1.83,0,1.42,1.49,1.56,2.06,1.56,1.79,0,2.2-.78,2.2-1.33ZM185.32,147.88c.12,0,.16.04.16.25,0,.19-.05.21-.16.21h-1.33c.03.23.07.48.07.87,0,.64-.18,1.16-.53,1.67-1.12,1.62-3.02,1.21-3.02,1.76s.3.55,1.28,1.1c.85.48,2.13,1.05,2.13,2.52,0,1.03-1.19,1.83-2.99,1.83-2.06,0-3.06-.94-3.06-1.92,0-.82,1.03-1.69,2.59-2.12-.32-.18-1.03-.66-1.03-1.17,0-.3.83-.51,1.01-.71-.46-.55-.8-1.16-.8-1.92,0-1.58,1.37-3.07,2.67-3.07.5,0,.8.18,1.08.34.3.18.57.36.98.36h.94Z"/>
  <path class="st0" d="M186.57,152.87c0-1.49,2.63-4.3,4.2-4.3.5,0,.66.21.66.52,0,1.17-3.06,4.32-4.27,4.32-.41,0-.59-.25-.59-.53M185.5,153.46c0,.39.12,1.01.78,1.01,1.05,0,2.54-1.28,3.43-2.26l.78-.85.04.04c-.23.48-1.12,2.15-1.12,2.75,0,.21.12.32.42.32.92,0,3.11-2.26,3.11-2.52,0-.12-.04-.16-.16-.16-.2,0-1.35,1.63-1.97,1.63-.12,0-.2-.02-.2-.12s.05-.19.11-.3l2.31-5.06c.07-.14.11-.27.11-.32,0-.18-.11-.25-.41-.25-.46,0-.57.12-.76.52-.13.25-.29.34-.46.34-.14,0-.43-.07-.71-.07-2.06,0-5.29,3.16-5.29,5.31Z"/>
  <path class="st0" d="M198.37,147.19c-2.44,0-3.93,3.77-3.93,5.46,0,1.51.48,1.83,1.08,1.83,1.15,0,2.52-1.92,2.52-1.99,0-.05-.16-.16-.21-.16-.2,0-.62,1.08-1.56,1.08-.55,0-.84-.41-.84-1.17s1.17-4.62,2.26-4.62c.45,0,.71.82,1.39.82.21,0,.57-.02.57-.5,0-.66-.78-.75-1.28-.75"/>
  <path class="st0" d="M199.59,156.89c-.34,0-.59.21-.59.55,0,.5.21.66.68.66,2.13,0,4.09-3.61,4.58-4.48.84-1.46,2.04-5.08,2.04-5.99,0-.27-.09-.45-.32-.45-.32,0-.43.27-.43.75,0,1.9-.62,3.27-1.44,5.08-.18.39-.41.82-.46.82-.02,0-.04-.02-.04-.09,0-.25.07-.78.07-1.76,0-2.56-.46-4.8-1.4-4.8-1.01,0-1.88,2.17-1.88,2.45,0,.12.07.2.16.2.19,0,.53-1.55,1.46-1.55.46,0,.78,2.98.78,5.22,0,1.71-1.56,3.7-2.36,3.7-.27,0-.39-.32-.85-.32"/>
</svg>