<?xml version="1.0" encoding="UTF-8"?>
<svg id="Isolation_Mode" data-name="Isolation Mode" xmlns="http://www.w3.org/2000/svg" viewBox="0 0 476.14 346.44">
  <defs>
    <style>
      .cls-1 {
        fill: #b7c744;
      }
    </style>
  </defs>
  <path class="cls-1" d="M333.06,62.61v27.03c0,1.22-.06,2.41-.16,3.58-.07.76-.17,1.5-.28,2.23-1.03,6.74-3.92,12.66-8.68,17.75-6.09,6.5-13.56,9.75-22.44,9.75-5.87,0-11.08-1.48-15.67-4.38v-55.95h47.23Z"/>
  <path class="cls-1" d="M285.97,119v55.95c-4.59,2.9-9.81,4.38-15.67,4.38-8.88,0-16.35-3.25-22.44-9.75-4.76-5.08-7.65-11-8.68-17.75-.11-.73-.21-1.48-.28-2.23-.1-1.17-.16-2.36-.16-3.58v-27.03h47.23Z"/>
  <path class="cls-1" d="M189.86,118.75v-55.95c4.59-2.9,9.81-4.38,15.67-4.38,8.88,0,16.35,3.25,22.44,9.75,4.76,5.08,7.65,11,8.68,17.75.11.73.21,1.48.28,2.23.1,1.17.16,2.36.16,3.58v27.03h-47.23Z"/>
  <path class="cls-1" d="M142.77,62.36v-27.03c0-1.22.06-2.41.16-3.58.07-.76.17-1.5.28-2.23,1.03-6.74,3.92-12.66,8.68-17.75,6.09-6.5,13.56-9.75,22.44-9.75,5.87,0,11.08,1.48,15.67,4.38v55.95h-47.23Z"/>
  <path class="cls-1" d="M190.29,119v27.03c0,1.22-.06,2.41-.16,3.58-.07.76-.17,1.5-.28,2.23-1.03,6.74-3.92,12.66-8.68,17.75-6.09,6.5-13.56,9.75-22.44,9.75-5.87,0-11.08-1.48-15.67-4.38v-55.95h47.23Z"/>
  <path class="cls-1" d="M143.21,175.39v55.95c-4.59,2.9-9.81,4.38-15.67,4.38-8.88,0-16.35-3.25-22.44-9.75-4.76-5.08-7.65-11-8.68-17.75-.11-.73-.21-1.48-.28-2.23-.1-1.17-.16-2.36-.16-3.58v-27.03h47.23Z"/>
  <path class="cls-1" d="M47.09,175.14v-55.95c4.59-2.9,9.81-4.38,15.67-4.38,8.88,0,16.35,3.25,22.44,9.75,4.76,5.08,7.65,11,8.68,17.75.11.73.21,1.48.28,2.23.1,1.17.16,2.36.16,3.58v27.03h-47.23Z"/>
  <path class="cls-1" d="M0,118.75v-27.03c0-1.22.06-2.41.16-3.58.07-.76.17-1.5.28-2.23,1.03-6.74,3.92-12.66,8.68-17.75,6.09-6.5,13.56-9.75,22.44-9.75,5.87,0,11.08,1.48,15.67,4.38v55.95H0Z"/>
  <path class="cls-1" d="M381.8,116.72v-27.03c0-1.22.06-2.41.16-3.58.07-.76.17-1.5.28-2.23,1.03-6.74,3.92-12.66,8.68-17.75,6.09-6.5,13.56-9.75,22.44-9.75,5.87,0,11.08,1.48,15.67,4.38v55.95h-47.23Z"/>
  <path class="cls-1" d="M428.89,60.33V4.38c4.59-2.9,9.81-4.38,15.67-4.38,8.88,0,16.35,3.25,22.44,9.75,4.76,5.08,7.65,11,8.68,17.75.11.73.21,1.48.28,2.23.1,1.17.16,2.36.16,3.58v27.03h-47.23Z"/>
  <path class="cls-1" d="M333.08,177.49v55.95c-4.59,2.9-9.81,4.38-15.67,4.38-8.88,0-16.35-3.25-22.44-9.75-4.76-5.08-7.65-11-8.68-17.75-.11-.73-.21-1.48-.28-2.23-.1-1.17-.16-2.36-.16-3.58v-27.03h47.23Z"/>
  <path class="cls-1" d="M380.17,233.88v27.03c0,1.22-.06,2.41-.16,3.58-.07.76-.17,1.5-.28,2.23-1.03,6.74-3.92,12.66-8.68,17.75-6.09,6.5-13.56,9.75-22.44,9.75-5.87,0-11.08-1.48-15.67-4.38v-55.95h47.23Z"/>
  <path class="cls-1" d="M381.82,233.63v-27.03c0-1.22.06-2.41.16-3.58.07-.76.17-1.5.28-2.23,1.03-6.74,3.92-12.66,8.68-17.75,6.09-6.5,13.56-9.75,22.44-9.75,5.87,0,11.08,1.48,15.67,4.38v55.95h-47.23Z"/>
  <path class="cls-1" d="M428.9,177.24v-55.95c4.59-2.9,9.81-4.38,15.67-4.38,8.88,0,16.35,3.25,22.44,9.75,4.76,5.08,7.65,11,8.68,17.75.11.73.21,1.48.28,2.23.1,1.17.16,2.36.16,3.58v27.03h-47.23Z"/>
  <path class="cls-1" d="M285.91,229.73v27.03c0,1.22-.06,2.41-.16,3.58-.07.76-.17,1.5-.28,2.23-1.03,6.74-3.92,12.66-8.68,17.75-6.09,6.5-13.56,9.75-22.44,9.75-5.87,0-11.08-1.48-15.67-4.38v-55.95h47.23Z"/>
  <path class="cls-1" d="M238.82,286.11v55.95c-4.59,2.9-9.81,4.38-15.67,4.38-8.88,0-16.35-3.25-22.44-9.75-4.76-5.08-7.65-11-8.68-17.75-.11-.73-.21-1.48-.28-2.23-.1-1.17-.16-2.36-.16-3.58v-27.03h47.23Z"/>
</svg>